<?xml version="1.0" encoding="UTF-8" standalone="no"?><!DOCTYPE svg PUBLIC "-//W3C//DTD SVG 1.1//EN" "http://www.w3.org/Graphics/SVG/1.1/DTD/svg11.dtd"><svg width="100%" height="100%" viewBox="0 0 1440 750" version="1.1" xmlns="http://www.w3.org/2000/svg" xmlns:xlink="http://www.w3.org/1999/xlink" xml:space="preserve" xmlns:serif="http://www.serif.com/" style="fill-rule:evenodd;clip-rule:evenodd;stroke-linejoin:round;stroke-miterlimit:2;"><path id="Wordmark" d="M866.798,560.102c-3.087,3.5 -6.779,7.488 -11.077,11.966c-6.558,6.832 -13.479,12.386 -20.766,16.667c-7.286,4.281 -13.934,6.421 -19.946,6.421c-3.825,0 -7.377,-0.819 -10.655,-2.458c-4.008,-2.369 -6.512,-6.923 -7.514,-13.662c-1.001,-6.74 -0.592,-14.573 1.23,-23.497c1.389,-6.807 7.25,-28.207 7.898,-32.487c0.169,-1.115 0.265,-2.186 0.189,-3.172c-0.04,-0.51 -0.006,-1.017 -0.341,-1.345c-0.679,-0.664 -1.863,-0.684 -3.51,-0.707c-5.545,-0.077 -13.16,2.509 -20.351,5.443c-6.855,2.797 -13.322,6.023 -17.498,8.212l0.006,0.012c7.104,14.026 9.655,28.87 7.65,44.535c-3.642,28.598 -20.583,58.38 -50.819,89.345c-29.509,30.054 -60.201,51.003 -92.077,62.842c-29.691,10.929 -49.18,8.925 -58.47,-6.011c-14.573,-23.498 -1.913,-56.012 37.978,-97.542c34.973,-36.429 80.692,-69.125 137.158,-98.087c-5.282,-5.465 -11.702,-9.745 -19.261,-12.842c-7.56,-3.096 -15.984,-4.917 -25.274,-5.464c-9.289,-0.546 -17.668,-0.638 -25.137,-0.274c-7.468,0.365 -16.12,1.184 -25.956,2.459c-5.464,0.546 -12.568,1.504 -21.312,2.869c-8.743,1.366 -16.985,2.596 -24.726,3.689c-7.742,1.093 -14.891,1.913 -21.449,2.458c-6.193,0.912 -13.479,1.139 -21.857,0.684c-8.379,-0.456 -15.302,-2.14 -20.765,-5.054c-5.647,-3.279 -9.563,-7.469 -11.749,-12.57c-2.186,-5.1 -2.688,-10.609 -1.503,-16.53c1.184,-5.919 2.869,-11.429 5.055,-16.529c2.185,-5.1 4.827,-10.109 7.923,-15.028c19.307,-30.055 49.909,-58.197 91.803,-84.426c18.58,-11.658 36.521,-20.811 53.826,-27.46c17.305,-6.647 34.335,-9.243 51.093,-7.786c20.219,1.821 32.514,9.472 36.885,22.951c0.911,3.46 1.504,6.967 1.776,10.519c0.274,3.551 -0.091,7.423 -1.093,11.612c-1.002,4.19 -1.867,7.695 -2.595,10.518c-0.728,2.824 -2.186,6.649 -4.372,11.477c-2.186,4.826 -3.688,8.06 -4.508,9.699c-0.82,1.64 -2.413,4.918 -4.781,9.836c-1.276,2.368 -3.142,3.644 -5.602,3.825c-2.458,0.182 -4.416,-0.592 -5.874,-2.322c-1.457,-1.731 -1.64,-3.78 -0.547,-6.148c0.547,-1.093 1.367,-2.686 2.46,-4.781c1.093,-2.095 2.003,-3.871 2.733,-5.328c0.728,-1.458 1.638,-3.325 2.731,-5.602c1.093,-2.276 2.004,-4.279 2.732,-6.01c0.73,-1.73 1.549,-3.688 2.46,-5.874c0.91,-2.186 1.593,-4.235 2.049,-6.148c0.456,-1.913 0.865,-3.871 1.229,-5.875c0.364,-2.003 0.501,-3.961 0.41,-5.874c-0.09,-1.912 -0.318,-3.78 -0.683,-5.601c-2.732,-12.021 -13.297,-18.124 -31.694,-18.306c-18.215,-0.364 -40.437,6.011 -66.667,19.125c-23.315,11.658 -45.128,25.775 -65.438,42.351c-20.309,16.575 -36.566,34.699 -48.77,54.371c-11.658,18.762 -13.57,31.786 -5.738,39.072c2.186,2.003 4.964,3.551 8.333,4.644c3.37,1.093 7.423,1.594 12.159,1.503c4.736,-0.091 8.516,-0.228 11.339,-0.41c2.823,-0.181 7.012,-0.728 12.568,-1.639c5.556,-0.91 8.698,-1.366 9.427,-1.366c5.828,-0.729 14.207,-2.049 25.136,-3.962c10.93,-1.912 20.265,-3.37 28.006,-4.372c7.741,-1.001 16.439,-1.912 26.092,-2.731c9.655,-0.82 18.899,-0.684 27.733,0.409c8.834,1.093 17.167,3.005 25,5.738c11.293,4.007 20.674,10.838 28.142,20.491l0.062,0.079c5.6,-2.961 15.863,-8.102 25.835,-11.609c6.896,-2.425 13.686,-4.024 18.951,-3.952c6.277,0.086 10.168,2.112 12.63,4.728c2.627,2.795 3.861,6.574 3.817,10.989c-0.057,5.706 -5.326,23.177 -5.967,25.858c-2.458,10.293 -3.779,18.261 -3.961,23.908c-0.183,5.646 0.364,9.29 1.639,10.929c6.011,3.279 15.027,-0.228 27.05,-10.519c12.021,-10.292 23.042,-22.359 33.059,-36.202c0.485,-0.647 1.033,-1.177 1.643,-1.59c3.45,-15.575 7.73,-33.536 12.838,-53.875c0.365,-1.64 1.321,-2.914 2.87,-3.826c1.547,-0.91 3.142,-1.137 4.781,-0.682c1.64,0.455 2.914,1.412 3.824,2.868c0.912,1.458 1.185,3.097 0.821,4.919c-6.375,25.683 -11.84,49.544 -16.394,71.584c8.015,-15.665 16.985,-27.823 26.913,-36.475c9.927,-8.653 20.446,-12.249 31.558,-10.793c1.821,0.182 3.279,0.956 4.37,2.323c1.093,1.366 1.549,2.914 1.367,4.645c-0.182,1.73 -1.002,3.142 -2.458,4.235c-1.458,1.093 -3.007,1.548 -4.646,1.365c-8.379,-1.091 -16.803,2.597 -25.273,11.067c-8.47,8.47 -15.847,19.307 -22.131,32.513c-6.285,13.206 -11.704,27.732 -16.257,43.579c-0.729,2.916 -2.55,4.463 -5.465,4.646c-0.182,0.182 -0.364,0.273 -0.547,0.273c-2.731,-0 -4.644,-1.184 -5.737,-3.552c-2.478,-5.058 -1.152,-21.026 3.974,-47.896Zm-107.799,-7.023c-1.276,-5.828 -3.188,-11.202 -5.739,-16.119c-73.406,36.794 -125.864,77.778 -157.376,122.95c-2.186,3.098 -4.281,6.284 -6.284,9.563c-2.005,3.279 -4.054,7.332 -6.149,12.159c-2.095,4.827 -3.642,9.335 -4.644,13.525c-1.002,4.189 -1.139,8.379 -0.41,12.568c0.729,4.19 2.55,7.651 5.464,10.383c6.376,6.193 19.309,5.828 38.798,-1.093c32.97,-11.658 64.3,-33.334 93.989,-65.028c34.063,-36.612 48.179,-69.582 42.351,-98.908Zm283.1,-1.114c2.576,-12.475 5.53,-25.491 8.858,-39.049c0.182,-0.547 0.364,-1.184 0.547,-1.914c5.463,-21.675 11.156,-41.712 17.075,-60.108c5.921,-18.398 12.888,-36.203 20.902,-53.416c8.015,-17.213 16.03,-29.736 24.044,-37.568c7.833,-7.651 15.756,-11.384 23.771,-11.203c4.918,0 8.379,2.003 10.383,6.012c2.549,5.1 1.228,14.298 -3.963,27.595c-5.191,13.297 -13.069,28.734 -23.633,46.311c-10.565,17.578 -20.265,33.197 -29.099,46.858c-8.834,13.662 -18.078,27.232 -27.732,40.712c-2.186,8.925 -4.281,17.941 -6.285,27.049c10.2,-11.84 22.951,-20.675 38.252,-26.503c3.097,-1.276 6.285,-2.369 9.563,-3.279c1.822,-0.365 3.46,-0.137 4.918,0.684c1.458,0.819 2.459,2.049 3.005,3.688c0.183,1.275 0.183,2.413 -0,3.415c-0.182,1.002 -0.682,1.913 -1.503,2.732c-0.819,0.819 -1.775,1.412 -2.868,1.776c-2.369,0.547 -4.645,1.275 -6.83,2.186c-21.13,7.65 -36.613,22.769 -46.449,45.355c3.096,4.737 6.74,8.425 10.929,11.065c4.19,2.642 8.925,4.235 14.208,4.782c12.203,1.458 25.273,-1.548 39.208,-9.017c13.844,-7.419 24.675,-15.107 32.497,-23.068c0.111,-1.38 0.253,-2.798 0.426,-4.253c0.182,-1.276 0.273,-2.095 0.273,-2.46c0.546,-5.282 2.46,-11.247 5.739,-17.896c3.277,-6.649 7.831,-12.614 13.661,-17.896c5.828,-5.283 11.93,-7.923 18.305,-7.923c4.372,-0 8.015,1.456 10.93,4.37c15.311,5.826 27.581,5.797 36.809,-0.087c2.319,-9.799 4.896,-20.338 7.726,-31.606c0.365,-1.64 1.321,-2.914 2.869,-3.826c1.548,-0.91 3.142,-1.137 4.782,-0.682c1.638,0.455 2.914,1.412 3.824,2.868c0.911,1.458 1.184,3.097 0.82,4.919c-6.376,25.683 -11.839,49.544 -16.393,71.584c8.014,-15.665 16.985,-27.823 26.912,-36.475c9.928,-8.653 20.447,-12.249 31.558,-10.793c1.822,0.182 3.278,0.956 4.371,2.323c1.093,1.366 1.549,2.914 1.367,4.645c-0.183,1.73 -1.002,3.142 -2.46,4.235c-1.456,1.093 -3.005,1.548 -4.644,1.365c-8.38,-1.091 -16.803,2.597 -25.273,11.067c-8.47,8.47 -15.847,19.307 -22.132,32.513c-6.284,13.206 -11.703,27.732 -16.257,43.579c-0.728,2.916 -2.55,4.463 -5.465,4.646c-0.181,0.182 -0.363,0.273 -0.546,0.273c-2.732,-0 -4.645,-1.184 -5.738,-3.552c-3.376,-6.894 0.311,-34.056 11.061,-81.483c-7.834,2.148 -16.712,2.079 -26.635,-0.211c0.911,6.375 0.639,15.3 -0.819,26.775c-0.728,5.283 -3.142,12.114 -7.24,20.493c-4.099,8.379 -9.153,14.389 -15.165,18.033c-3.46,2.186 -7.103,3.279 -10.928,3.279c-2.186,-0 -4.281,-0.365 -6.284,-1.093c-8.228,-2.821 -13.232,-9.511 -15.014,-20.069c-8.059,6.683 -17.717,12.871 -28.976,18.565c-15.664,7.923 -30.51,11.157 -44.536,9.7c-11.475,-1.275 -21.128,-6.103 -28.961,-14.482c-2.369,8.198 -3.825,16.03 -4.372,23.498l0,1.093c-0.546,4.19 -2.458,6.375 -5.737,6.558l-0.821,-0c-1.456,-0 -2.777,-0.456 -3.961,-1.367c-1.184,-0.91 -1.958,-2.186 -2.323,-3.824c-0.181,-1.276 -0.09,-3.553 0.274,-6.832c0.482,-6.261 2.024,-16.628 4.629,-31.097c-2.87,2.699 -5.739,5.141 -8.608,7.327c-3.825,2.914 -8.197,5.465 -13.115,7.651c-4.919,2.186 -9.563,3.279 -13.935,3.279c-4.371,-0 -8.378,-1.093 -12.021,-3.279c-5.465,-3.279 -8.289,-9.2 -8.47,-17.76c-12.205,14.936 -23.771,20.947 -34.7,18.032c-8.926,-2.549 -13.479,-8.833 -13.661,-18.852c-0.182,-7.104 2.323,-15.574 7.514,-25.409c5.191,-9.837 11.43,-18.58 18.716,-26.23c7.286,-7.651 13.843,-12.296 19.672,-13.935c5.1,-1.64 9.745,-1.184 13.934,1.367c2.369,1.456 4.462,3.642 6.285,6.556l-0,-0.546c0.91,-1.457 2.14,-2.505 3.688,-3.142c1.548,-0.638 3.096,-0.591 4.645,0.137c1.548,0.728 2.686,1.912 3.414,3.551c0.73,1.64 0.73,3.188 0,4.646c-2.549,6.375 -5.372,12.841 -8.469,19.398c-4.008,10.382 -6.603,19.308 -7.787,26.777c-1.184,7.468 -0.591,12.294 1.776,14.48c2.55,1.822 5.647,2.186 9.289,1.093c3.644,-1.093 7.196,-2.686 10.656,-4.781c3.461,-2.094 7.059,-4.827 10.793,-8.197c3.735,-3.369 6.877,-6.466 9.426,-9.29c2.076,-2.298 3.91,-4.445 5.504,-6.442Zm359.952,28.71c1.821,-0 3.324,0.637 4.508,1.913c1.183,1.275 1.776,2.778 1.776,4.508c0,1.73 -0.637,3.233 -1.912,4.509c-6.193,5.828 -12.478,8.742 -18.853,8.742c-3.096,0 -5.919,-0.91 -8.47,-2.732c-2.551,-1.64 -4.6,-4.508 -6.147,-8.606c-1.549,-4.099 -2.551,-7.878 -3.006,-11.339c-0.456,-3.461 -1.047,-8.561 -1.776,-15.3c-1.093,-12.023 -2.276,-19.126 -3.552,-21.312c-4.372,1.275 -15.392,12.659 -33.061,34.153c-6.375,7.832 -11.11,13.387 -14.207,16.666c-3.096,3.279 -5.738,5.419 -7.924,6.421c-2.186,1.002 -4.279,0.774 -6.284,-0.683c-2.004,-1.457 -2.914,-3.37 -2.732,-5.738c1.093,-11.293 7.56,-40.528 19.4,-87.705c0.546,-1.64 1.547,-2.914 3.005,-3.825c1.457,-0.91 3.051,-1.184 4.781,-0.82c1.73,0.365 3.051,1.321 3.961,2.87c0.911,1.547 1.185,3.142 0.82,4.781c-5.828,22.222 -11.02,44.262 -15.574,66.12c1.276,-1.639 2.914,-3.733 4.919,-6.284c12.021,-14.572 21.311,-24.863 27.869,-30.875c6.557,-6.011 12.386,-8.651 17.486,-7.923c2.55,0.365 4.69,1.366 6.421,3.005c1.731,1.64 3.05,4.281 3.961,7.924c0.912,3.643 1.594,6.831 2.049,9.562c0.456,2.733 0.957,6.923 1.503,12.57c1.458,15.846 3.188,24.498 5.192,25.956c1.093,0.728 2.823,0.5 5.191,-0.684c2.368,-1.183 4.463,-2.595 6.284,-4.235c1.093,-1.093 2.551,-1.639 4.372,-1.639Zm-207.925,-28.961c2.005,-15.484 1.822,-25.502 -0.546,-30.056c-1.64,-0.546 -3.187,-1.274 -4.645,-2.186c-5.1,0.912 -10.2,5.01 -15.3,12.296c-5.1,7.286 -7.833,13.843 -8.197,19.672c-0.182,0.546 -0.273,1.458 -0.273,2.732c-1.093,5.647 -1.23,11.34 -0.411,17.077c0.821,5.737 3.051,9.244 6.695,10.519c2.003,0.729 4.189,0.456 6.558,-0.819c2.549,-1.821 5.145,-4.828 7.786,-9.017c2.642,-4.19 4.645,-8.106 6.012,-11.748c1.365,-3.644 2.14,-6.467 2.321,-8.47Zm-203.432,-18.58c0.363,-0.911 0.819,-2.004 1.366,-3.278c-0.729,-0.912 -1.275,-1.913 -1.64,-3.006c-0.728,-4.19 -2.186,-6.922 -4.372,-8.197c-0.363,-0.365 -0.819,-0.546 -1.365,-0.546c-0.547,-0 -1.184,0.091 -1.914,0.274c-6.739,2.003 -14.617,9.379 -23.633,22.13c-9.016,12.751 -13.433,23.224 -13.251,31.421c-0,3.461 1.456,5.647 4.371,6.557c5.282,1.458 11.612,-2.322 18.989,-11.338c7.377,-9.016 14.526,-20.356 21.449,-34.017Zm-544.481,-20.304c2.389,-1.619 4.564,-1.335 6.525,0.849c1.962,2.184 1.891,4.652 -0.213,7.403c-5.082,6.795 -9.659,15.088 -13.731,24.878c-4.072,9.789 -6.28,18.405 -6.621,25.85c-0.238,2.265 -1.353,4.004 -3.347,5.218c-1.995,1.213 -3.904,1.496 -5.733,0.85c-1.827,-0.648 -2.703,-2.105 -2.627,-4.37c0.74,-12.459 5.231,-26.455 13.472,-41.989c-5.387,2.103 -10.984,3.559 -16.79,4.368c-5.806,0.81 -11.431,1.053 -16.876,0.728c-5.444,-0.323 -10.504,-1.455 -15.177,-3.398c-4.674,-1.942 -8.329,-4.611 -10.966,-8.01c-3.837,-4.853 -5.717,-9.789 -5.642,-14.804c0.076,-5.017 1.449,-9.588 4.117,-13.714c2.67,-4.127 6.676,-8.495 12.021,-13.106c5.343,-4.612 10.423,-8.415 15.239,-11.408c4.815,-2.993 10.369,-6.27 16.66,-9.83c-7.235,-2.103 -13.153,-5.704 -17.756,-10.801c-4.603,-5.096 -7.106,-11.084 -7.512,-17.961c-0.405,-6.877 2.165,-14.117 7.714,-21.723c6.09,-7.928 13.984,-12.783 23.683,-14.563c9.7,-1.78 18.86,-0.97 27.485,2.428c8.624,3.397 15.13,8.252 19.518,14.563c1.143,1.78 1.098,3.64 -0.134,5.581c-1.232,1.942 -2.814,3.115 -4.746,3.52c-1.932,0.405 -3.646,-0.202 -5.14,-1.82c-4.228,-6.311 -11.191,-10.639 -20.891,-12.986c-9.698,-2.346 -18.389,-1.011 -26.069,4.005c-6.71,5.016 -10.183,10.033 -10.42,15.049c-0.237,5.016 1.229,9.546 4.399,13.591c3.17,4.046 7.571,7.08 13.201,9.103c5.63,2.022 11.039,2.548 16.227,1.577c2.702,-0.647 4.485,0.486 5.346,3.398c0.862,2.913 -0.049,5.098 -2.733,6.553c-1.275,0.81 -4.271,2.428 -8.987,4.855c-4.716,2.428 -8.917,4.693 -12.606,6.796c-3.687,2.103 -8.068,4.693 -13.14,7.766c-5.073,3.075 -9.209,6.11 -12.407,9.103c-3.197,2.993 -5.979,6.148 -8.343,9.465c-2.365,3.318 -3.355,6.634 -2.969,9.952c0.386,3.317 2.184,6.432 5.392,9.345c6.473,5.501 15.906,7.523 28.298,6.066c12.392,-1.455 22.434,-5.176 30.124,-11.164c0.571,-0.485 1.289,-0.89 2.155,-1.213Zm369.338,-23.103l3.827,-0.956c3.412,-0.853 5.489,-4.316 4.636,-7.728c-0.852,-3.413 -4.315,-5.49 -7.727,-4.637l-3.827,0.956c-3.412,0.854 -5.49,4.317 -4.636,7.729c0.852,3.412 4.315,5.49 7.727,4.636Zm306.991,-120.801c-16.394,16.212 -32.879,53.005 -49.454,110.383c12.021,-18.033 22.86,-35.11 32.514,-51.229c9.654,-16.121 17.395,-30.284 23.224,-42.488c5.828,-12.203 8.379,-20.217 7.65,-24.043c-4.371,0.182 -9.016,2.64 -13.934,7.377Zm-696.987,-139.581c0.527,-5.165 1.207,-10.06 2.04,-14.684c-0,-0.182 0.091,-0.274 0.273,-0.274c3.825,-18.579 8.743,-39.253 14.753,-62.022c-48.998,-2.368 -77.049,-0.182 -84.152,6.558c-1.093,1.093 -2.551,1.639 -4.372,1.639c-1.821,0 -3.37,-0.637 -4.645,-1.913c-1.093,-1.275 -1.639,-2.777 -1.639,-4.508c-0,-1.73 0.637,-3.232 1.912,-4.508c9.837,-9.289 41.986,-12.568 96.449,-9.836c15.665,-55.738 29.873,-87.887 42.622,-96.449c3.826,-2.368 7.651,-3.142 11.477,-2.322c3.825,0.819 6.557,3.142 8.196,6.968c0.546,0.91 0.911,2.231 1.093,3.961c0.183,1.73 -0.045,5.009 -0.683,9.837c-0.637,4.826 -1.822,10.428 -3.552,16.802c-1.731,6.375 -4.782,15.119 -9.153,26.23c-4.371,11.111 -9.836,23.497 -16.394,37.159c5.83,0.364 11.932,0.819 18.307,1.366c7.832,0.728 15.027,1.002 21.584,0.82c6.558,-0.183 12.478,-0.683 17.76,-1.504c5.282,-0.819 9.882,-1.821 13.798,-3.005c3.916,-1.184 7.24,-2.414 9.972,-3.688c2.733,-1.275 4.828,-2.459 6.284,-3.552c1.458,-1.093 2.369,-2.095 2.733,-3.006c0.729,-1.457 1.913,-2.505 3.552,-3.142c1.639,-0.637 3.278,-0.637 4.918,-0c1.639,0.637 2.778,1.73 3.415,3.279c0.638,1.548 0.592,3.142 -0.136,4.781c-2.733,6.922 -11.749,12.796 -27.05,17.623c-15.3,4.828 -34.7,6.24 -58.196,4.235c-7.833,-0.728 -15.483,-1.365 -22.951,-1.912c-9.472,19.308 -20.674,40.529 -33.607,63.662c-2.733,15.118 -3.552,30.509 -2.459,46.174c1.093,15.666 3.734,25.228 7.924,28.689c1.639,1.457 3.46,2.003 5.463,1.64c3.826,-0.365 7.925,-2.688 12.296,-6.968c4.372,-4.281 7.832,-8.242 10.383,-11.886c0.533,-0.853 1.207,-1.519 2.022,-1.998c0.237,-3.423 0.942,-7.08 2.114,-10.972c2.004,-6.647 4.781,-13.024 8.333,-19.126c3.552,-6.101 6.376,-10.746 8.471,-13.933c2.094,-3.188 4.052,-5.875 5.873,-8.061c7.286,-9.29 14.026,-12.841 20.219,-10.655c5.465,1.821 8.288,7.376 8.47,16.666c-0,1.822 -0.592,3.369 -1.776,4.645c-1.183,1.275 -2.686,1.912 -4.508,1.912c-1.275,0 -2.368,-0.272 -3.279,-0.819c-0.91,-0.546 -1.685,-1.276 -2.322,-2.186c-0.637,-0.911 -0.956,-2.004 -0.956,-3.279c-0,-1.457 -0.092,-2.732 -0.274,-3.825c-2.003,1.458 -3.916,3.279 -5.737,5.465c-5.1,6.739 -10.201,15.072 -15.301,25c-5.1,9.926 -7.286,18.078 -6.558,24.454c0.365,3.279 1.731,5.737 4.099,7.377c2.915,2.367 7.013,2.823 12.295,1.365c5.283,-1.456 10.929,-3.916 16.94,-7.377c6.011,-3.46 12.25,-7.695 18.716,-12.705c6.467,-5.009 12.295,-9.881 17.486,-14.617c5.191,-4.736 9.518,-9.016 12.979,-12.841c0.461,-0.463 0.955,-0.848 1.476,-1.154c2.938,-11.97 6.271,-24.336 9.999,-37.098c6.011,-21.312 12.295,-41.03 18.853,-59.153c6.557,-18.124 12.933,-33.789 19.126,-46.995c6.193,-13.206 12.021,-23.269 17.486,-30.192c6.921,-8.924 13.752,-13.387 20.491,-13.387c6.193,0 10.565,2.459 13.116,7.377c2.914,5.647 2.322,15.346 -1.776,29.098c-4.098,13.752 -9.791,28.051 -17.077,42.896c-7.286,14.846 -16.166,31.421 -26.64,49.728c-10.473,18.305 -18.944,32.65 -25.41,43.033c-6.466,10.382 -12.613,20.126 -18.442,29.235c-3.279,13.479 -5.829,25.454 -7.651,35.929c-1.821,10.474 -2.732,18.442 -2.732,23.907c4.007,-5.647 11.749,-19.4 23.225,-41.257c13.478,-26.048 23.542,-43.534 30.191,-52.46c6.649,-8.925 12.978,-12.203 18.989,-9.835c2.368,0.728 4.372,2.185 6.011,4.371c1.64,2.186 2.914,4.417 3.824,6.694c0.912,2.277 1.777,5.602 2.597,9.972c0.819,4.372 1.366,7.97 1.638,10.793c0.274,2.823 0.684,7.058 1.23,12.705c1.822,18.944 3.917,29.6 6.284,31.968c2.551,2.549 5.465,3.734 8.744,3.551c2.914,-0.182 5.874,-1.365 8.879,-3.551c3.006,-2.186 5.328,-4.372 6.968,-6.558c0.179,-0.239 0.367,-0.462 0.564,-0.669c-0.171,-1.173 -0.268,-2.406 -0.29,-3.703c-0.183,-7.103 2.321,-15.573 7.512,-25.41c5.193,-9.835 11.43,-18.579 18.717,-26.229c7.286,-7.65 13.843,-12.295 19.672,-13.934c5.1,-1.64 9.744,-1.184 13.935,1.365c2.367,1.458 4.462,3.644 6.284,6.558l-0,-0.546c0.911,-1.458 2.139,-2.505 3.688,-3.142c1.549,-0.638 3.097,-0.593 4.644,0.136c1.549,0.729 2.688,1.913 3.416,3.552c0.729,1.639 0.729,3.188 0,4.645c-2.55,6.376 -5.374,12.841 -8.47,19.399c-4.007,10.382 -6.602,19.308 -7.786,26.775c-1.185,7.469 -0.593,12.296 1.775,14.482c2.551,1.821 5.647,2.186 9.29,1.093c3.643,-1.093 7.195,-2.687 10.656,-4.782c3.461,-2.095 7.058,-4.827 10.792,-8.197c3.734,-3.37 6.876,-6.466 9.427,-9.289c2.108,-2.335 3.968,-4.515 5.579,-6.538c4.09,-7.975 9.881,-15.815 17.371,-23.518c9.655,-9.926 18.125,-14.889 25.411,-14.889c1.821,-0 3.37,0.637 4.644,1.912c1.275,1.275 1.912,2.777 1.912,4.508c0,1.73 -0.637,3.234 -1.912,4.508c-1.274,1.275 -2.823,1.912 -4.644,1.912c-3.462,0 -9.109,3.963 -16.941,11.886c-5.708,5.774 -10.255,11.815 -13.641,18.121c-0.208,0.778 -0.578,1.522 -1.113,2.235l-0.087,0.112c-0.772,1.585 -1.471,3.187 -2.099,4.805c-3.278,8.562 -3.005,14.755 0.82,18.579c7.833,4.372 25.775,-12.749 53.825,-51.366c3.825,-31.512 13.662,-65.665 29.509,-102.459c15.847,-36.794 30.692,-61.021 44.535,-72.678c7.651,-6.376 14.572,-8.379 20.765,-6.011c3.279,1.458 5.465,4.007 6.558,7.651c3.279,11.11 -3.871,33.97 -21.448,68.58c-17.578,34.607 -38.752,69.216 -63.525,103.824c-2.004,2.733 -3.462,4.737 -4.372,6.012c-1.457,13.842 -1.183,25.409 0.82,34.7c2.55,11.293 7.559,17.94 15.027,19.945c2.368,0.911 4.873,1.229 7.514,0.956c2.642,-0.273 5.054,-0.684 7.24,-1.23c2.186,-0.546 4.463,-1.503 6.831,-2.868c2.368,-1.367 4.417,-2.642 6.148,-3.826c1.73,-1.184 3.507,-2.641 5.328,-4.372c1.821,-1.73 3.279,-3.187 4.372,-4.37c1.093,-1.185 2.184,-2.505 3.277,-3.963c1.093,-1.457 1.823,-2.413 2.186,-2.869c0.365,-0.454 0.638,-0.773 0.821,-0.956l-0,-0.273c0.42,-0.56 0.887,-1.034 1.403,-1.42c1.013,-5.515 3.323,-11.691 6.93,-18.526c5.191,-9.835 11.43,-18.579 18.716,-26.229c7.286,-7.65 13.842,-12.295 19.672,-13.934c5.1,-1.64 9.745,-1.184 13.935,1.365c2.367,1.458 4.463,3.644 6.284,6.558l-0,-0.546c0.91,-1.458 2.14,-2.505 3.688,-3.142c1.549,-0.638 3.096,-0.593 4.645,0.136c1.548,0.729 2.686,1.913 3.416,3.552c0.728,1.639 0.728,3.188 -0,4.645c-2.551,6.376 -5.374,12.841 -8.47,19.399c-4.009,10.382 -6.604,19.308 -7.788,26.775c-1.184,7.469 -0.591,12.296 1.776,14.482c2.55,1.821 5.647,2.186 9.289,1.093c3.644,-1.093 7.196,-2.687 10.656,-4.782c3.462,-2.095 7.058,-4.827 10.793,-8.197c3.703,-3.34 6.822,-6.413 9.361,-9.217c1.041,-4.714 2.064,-9.245 3.071,-13.597l13.115,-57.104c0.546,-1.639 1.548,-2.914 3.005,-3.825c1.457,-0.911 3.051,-1.184 4.781,-0.819c1.73,0.363 3.051,1.319 3.962,2.868c0.91,1.548 1.184,3.142 0.82,4.781c-0.364,0.729 -4.28,17.578 -11.749,50.547c2.732,-4.372 5.738,-8.652 9.016,-12.842c3.279,-4.189 7.332,-9.016 12.16,-14.481c4.826,-5.464 10.063,-10.154 15.71,-14.07c5.646,-3.917 11.111,-6.512 16.393,-7.787c7.832,-1.822 14.937,-0.546 21.312,3.824c4.007,2.733 6.284,7.286 6.83,13.662c0.028,0.327 0.05,0.664 0.066,1.007c7.058,-3.234 17.067,-5.711 30.613,-4.657c19.554,1.521 29.674,2.278 37.394,2.593c6.368,0.26 11.7,4.591 15.017,5.52c15.609,4.376 25.019,4.589 34.491,-3.062c0.194,-0.145 0.39,-0.277 0.588,-0.398c2.343,-9.91 4.949,-20.576 7.817,-31.99c0.364,-1.64 1.32,-2.915 2.869,-3.826c1.548,-0.911 3.142,-1.138 4.781,-0.683c1.639,0.455 2.914,1.411 3.825,2.869c0.912,1.458 1.184,3.096 0.82,4.918c-6.375,25.683 -11.84,49.545 -16.394,71.585c8.016,-15.665 16.986,-27.823 26.914,-36.475c9.926,-8.653 20.445,-12.25 31.556,-10.793c1.822,0.182 3.279,0.956 4.372,2.323c1.093,1.366 1.549,2.914 1.366,4.645c-0.182,1.73 -1.001,3.142 -2.459,4.235c-1.457,1.093 -3.005,1.548 -4.644,1.365c-8.379,-1.093 -16.804,2.596 -25.274,11.066c-8.47,8.471 -15.847,19.308 -22.131,32.514c-6.284,13.206 -11.703,27.732 -16.256,43.579c-0.73,2.914 -2.551,4.463 -5.465,4.645c-0.182,0.183 -0.365,0.273 -0.547,0.273c-2.732,0 -4.644,-1.183 -5.737,-3.551c-3.336,-6.811 0.222,-33.397 10.671,-79.762c-8.505,3.019 -18.324,3.245 -29.458,0.675c0.911,6.375 0.637,15.301 -0.819,26.777c-0.73,5.282 -3.142,12.112 -7.242,20.491c-4.098,8.379 -9.153,14.39 -15.163,18.033c-3.461,2.186 -7.104,3.279 -10.93,3.279c-2.186,-0 -4.279,-0.365 -6.284,-1.093c-12.749,-4.372 -17.759,-18.033 -15.027,-40.984c0.183,-1.275 0.273,-2.095 0.273,-2.459c0.547,-5.283 2.459,-11.248 5.738,-17.897c2.587,-5.246 5.969,-10.067 10.144,-14.463c-4.677,-0.371 -10.028,-0.793 -15.795,-1.242c-18.149,-1.413 -27.923,5.06 -31.558,8.235l-0.044,0.195c-1.821,8.014 -5.1,17.304 -9.837,27.868c-4.735,10.565 -8.424,18.216 -11.065,22.951c-2.642,4.737 -4.6,8.107 -5.875,10.11c-6.374,10.383 -11.884,17.441 -16.53,21.174c-4.644,3.735 -8.788,4.509 -12.431,2.323c-5.465,-2.914 -7.286,-8.834 -5.465,-17.76c2.005,-9.654 7.696,-21.538 17.077,-35.656c9.38,-14.116 20.173,-26.638 32.377,-37.568c0.365,-1.639 0.638,-3.188 0.819,-4.645c0.547,-5.283 0.091,-8.379 -1.365,-9.29c-3.097,-2.367 -6.831,-3.005 -11.203,-1.912c-8.014,1.821 -16.849,8.151 -26.502,18.989c-9.654,10.838 -17.123,20.902 -22.405,30.191c-4.918,8.744 -12.568,36.203 -22.951,82.378c-10.382,46.174 -16.666,78.916 -18.852,98.224c-0.183,1.457 -0.865,2.732 -2.049,3.825c-1.185,1.093 -2.597,1.64 -4.235,1.64c-0.911,-0 -1.732,-0.137 -2.46,-0.41c-0.728,-0.274 -1.365,-0.637 -1.912,-1.093c-0.546,-0.456 -1.002,-1.002 -1.367,-1.639c-0.363,-0.638 -0.546,-1.321 -0.546,-2.049c-1.093,-6.74 2.504,-32.787 10.793,-78.143c5.218,-28.555 10.129,-53.899 14.732,-76.024c-0.949,0.779 -1.898,1.53 -2.847,2.254c-3.825,2.914 -8.197,5.464 -13.115,7.649c-4.917,2.186 -9.563,3.279 -13.934,3.279c-4.372,0 -8.379,-1.093 -12.022,-3.279c-5.464,-3.278 -8.287,-9.198 -8.47,-17.759c-12.205,14.936 -23.771,20.947 -34.7,18.033c-5.158,-1.474 -8.857,-4.196 -11.095,-8.165c-0.62,0.669 -1.293,1.386 -2.02,2.154c-3.279,3.46 -6.648,6.467 -10.109,9.016c-3.461,2.551 -7.742,4.872 -12.842,6.967c-5.1,2.095 -10.2,3.142 -15.3,3.142c-3.461,0 -6.922,-0.455 -10.382,-1.365c-12.386,-3.461 -20.31,-13.298 -23.772,-29.509c-1.274,-5.647 -1.912,-12.022 -1.912,-19.126c-13.661,17.486 -25.273,29.509 -34.836,36.066c-9.562,6.557 -17.987,7.286 -25.274,2.186c-0.181,-0 -0.363,-0.182 -0.546,-0.547c-4.501,-3.926 -7.063,-8.807 -7.687,-14.645c-2.356,2.141 -4.711,4.107 -7.067,5.903c-3.825,2.914 -8.197,5.464 -13.114,7.649c-4.919,2.186 -9.563,3.279 -13.935,3.279c-4.372,0 -8.379,-1.093 -12.022,-3.279c-5.464,-3.278 -8.288,-9.198 -8.471,-17.759c-12.203,14.936 -23.77,20.947 -34.698,18.033c-2.673,-0.764 -4.953,-1.861 -6.841,-3.294c-2.12,2.177 -4.666,4.277 -7.641,6.299c-4.553,3.097 -9.381,4.828 -14.481,5.192c-6.921,0.546 -13.114,-1.822 -18.579,-7.104c-2.186,-2.186 -3.961,-5.556 -5.328,-10.109c-1.366,-4.554 -2.322,-8.744 -2.868,-12.568c-0.547,-3.826 -1.093,-9.563 -1.64,-17.214c-1.821,-19.854 -4.007,-30.965 -6.557,-33.333c-4.919,2.914 -16.303,21.584 -34.154,56.01c-10.747,20.766 -18.533,34.654 -23.361,41.668c-4.826,7.012 -9.335,10.519 -13.524,10.519l-1.093,-0c-4.19,-0.547 -6.921,-3.279 -8.197,-8.198c-2.303,-8.389 0.074,-28.518 7.134,-60.391c-1.82,1.634 -3.879,3.459 -6.177,5.474c-6.648,5.828 -13.16,11.065 -19.536,15.71c-6.375,4.645 -13.524,8.834 -21.448,12.569c-7.923,3.733 -14.89,5.6 -20.902,5.6c-5.646,0 -10.474,-1.548 -14.481,-4.644c-2.421,-1.884 -4.358,-4.121 -5.807,-6.711c-1.277,1.463 -2.861,3.197 -4.75,5.2c-3.005,3.188 -6.374,5.921 -10.109,8.197c-3.734,2.277 -7.514,3.689 -11.339,4.235l-2.459,0c-4.918,0 -9.29,-1.639 -13.114,-4.918c-4.737,-4.19 -8.151,-11.977 -10.246,-23.361c-1.855,-10.08 -2.71,-20.087 -2.565,-30.026c-1.269,1.321 -2.737,2.814 -4.403,4.48c-3.825,3.825 -7.651,7.195 -11.475,10.109c-3.825,2.914 -8.197,5.465 -13.115,7.65c-4.918,2.186 -9.563,3.278 -13.934,3.278c-4.372,0 -8.379,-1.092 -12.023,-3.278c-5.465,-3.278 -8.288,-9.199 -8.47,-17.759c-12.204,14.935 -23.77,20.947 -34.7,18.032c-8.924,-2.55 -13.477,-8.834 -13.66,-18.853c-0.182,-7.103 2.322,-15.573 7.513,-25.409c5.191,-9.836 11.431,-18.58 18.717,-26.229c7.286,-7.651 13.842,-12.296 19.672,-13.935c5.1,-1.639 9.744,-1.184 13.935,1.366c2.367,1.457 4.461,3.643 6.284,6.557l-0,-0.546c0.91,-1.458 2.139,-2.505 3.688,-3.142c1.549,-0.637 3.096,-0.593 4.645,0.137c1.548,0.728 2.686,1.912 3.415,3.551c0.729,1.64 0.729,3.188 0,4.645c-2.55,6.376 -5.374,12.842 -8.47,19.4c-4.008,10.382 -6.603,19.307 -7.787,26.775c-1.184,7.469 -0.592,12.295 1.776,14.481c2.55,1.821 5.647,2.186 9.289,1.093c3.644,-1.093 7.195,-2.686 10.656,-4.781c3.461,-2.095 7.058,-4.828 10.793,-8.198c3.734,-3.369 6.876,-6.465 9.426,-9.289c2.55,-2.823 4.736,-5.418 6.558,-7.786c0.792,-0.924 1.751,-1.585 2.878,-1.983Zm-102.333,162.092c3.644,1.093 4.919,3.553 3.826,7.377c-1.093,3.461 -3.37,5.1 -6.831,4.918l-1.639,-0.546c-84.7,-28.052 -145.72,-73.68 -183.062,-136.886c-0.728,-1.275 -0.91,-2.55 -0.546,-3.825c0.365,-1.275 1.048,-2.368 2.05,-3.279c1.001,-0.91 2.14,-1.456 3.415,-1.639c20.583,-4.554 41.165,-12.386 61.749,-23.498c20.583,-11.11 39.709,-24.134 57.377,-39.071c6.011,-5.1 11.658,-10.382 16.94,-15.846c5.282,-5.465 10.383,-11.431 15.3,-17.897c4.919,-6.466 9.108,-13.206 12.569,-20.218c3.461,-7.013 6.238,-14.163 8.333,-21.449c2.096,-7.286 3.096,-14.89 3.006,-22.814c-0.091,-7.923 -1.412,-15.711 -3.962,-23.361c-2.55,-8.56 -6.739,-15.937 -12.569,-22.132c-5.828,-6.193 -12.614,-10.974 -20.354,-14.344c-7.742,-3.368 -15.711,-5.873 -23.907,-7.513c-8.198,-1.639 -16.758,-2.459 -25.684,-2.459c-20.219,-0 -41.029,2.96 -62.431,8.88c-21.403,5.92 -41.577,14.253 -60.521,24.999c-18.942,10.748 -36.156,24.09 -51.638,40.028c-15.484,15.938 -27.142,33.288 -34.973,52.05c-1.093,2.367 -2.824,3.643 -5.192,3.825c-2.368,0.182 -4.371,-0.593 -6.01,-2.323c-1.64,-1.73 -1.913,-3.779 -0.821,-6.147c6.922,-16.212 16.485,-31.375 28.689,-45.492c12.205,-14.117 25.456,-26.23 39.754,-36.339c14.3,-10.109 29.919,-19.08 46.858,-26.912c7.833,-3.644 16.394,-7.014 25.684,-10.11c9.289,-3.097 19.263,-5.874 29.917,-8.334c10.656,-2.458 21.403,-4.189 32.242,-5.191c10.837,-1.002 21.584,-1.274 32.24,-0.819c10.656,0.455 20.674,2.186 30.055,5.191c9.38,3.005 17.85,7.103 25.41,12.295c7.559,5.191 13.889,12.204 18.989,21.038c5.1,8.835 8.379,19.081 9.835,30.738c1.823,14.572 0.639,29.098 -3.551,43.579c-4.189,14.482 -10.656,27.779 -19.399,39.891c-8.743,12.114 -19.08,23.635 -31.011,34.563c-11.931,10.93 -24.818,20.629 -38.661,29.099c-13.844,8.469 -27.824,15.802 -41.94,21.995c-14.117,6.193 -27.824,11.02 -41.121,14.481c35.519,56.101 92.715,97.268 171.585,123.497Zm-180.601,-319.127c0.546,-2.55 1.958,-4.234 4.235,-5.055c2.276,-0.819 4.372,-0.591 6.284,0.684c1.913,1.274 2.687,3.188 2.323,5.737c-12.022,70.675 -29.964,176.595 -53.826,317.761c-0.547,2.551 -1.958,4.235 -4.235,5.055c-2.277,0.819 -4.372,0.592 -6.284,-0.683c-1.912,-1.275 -2.687,-3.188 -2.323,-5.738c12.023,-70.674 29.965,-176.594 53.826,-317.761Zm294.108,316.736c0,-2.752 0.128,-6.23 0.385,-10.438c0.256,-4.206 0.43,-8.171 0.519,-11.893c0.09,-3.721 -0.013,-7.038 -0.309,-9.951c-0.238,-3.236 1.251,-5.258 4.469,-6.068c3.541,-0.808 5.796,0.162 6.768,2.913c0.237,0.485 0.314,0.97 0.229,1.457c0.447,3.883 0.472,9.708 0.073,17.474c-0.399,7.768 -0.622,12.703 -0.669,14.806c0.086,2.265 -0.828,4.005 -2.74,5.218c-1.913,1.215 -3.864,1.497 -5.854,0.85c-1.989,-0.647 -2.946,-2.103 -2.871,-4.368Zm988.808,-107.757c1.73,-0.272 3.324,0.092 4.781,1.093c1.457,1.002 2.322,2.369 2.596,4.099c0.272,1.731 -0.046,3.324 -0.956,4.782c-0.547,0.728 -1.23,1.547 -2.049,2.458c-0.821,0.912 -2.05,2.186 -3.689,3.826c-1.639,1.639 -3.643,3.051 -6.011,4.235c-2.368,1.184 -4.737,1.867 -7.104,2.049c-4.736,0.546 -9.108,-1.002 -13.115,-4.645c-1.457,-1.276 -2.595,-3.37 -3.416,-6.284c-0.819,-2.915 -1.775,-7.741 -2.868,-14.481c-2.367,-13.844 -4.463,-21.949 -6.284,-24.317c-1.639,1.457 -6.376,7.65 -14.208,18.58c-2.003,2.914 -3.506,5.1 -4.508,6.556c-1.002,1.458 -2.46,3.461 -4.372,6.011c-1.912,2.55 -3.416,4.417 -4.507,5.601c-1.093,1.184 -2.505,2.688 -4.235,4.509c-1.732,1.821 -3.279,3.096 -4.646,3.825c-1.366,0.728 -2.823,1.366 -4.372,1.912c-1.547,0.547 -3.05,0.729 -4.508,0.547c-1.457,-0.182 -3.005,-0.638 -4.644,-1.366c-3.279,-1.822 -5.237,-6.102 -5.874,-12.842c-0.638,-6.739 -0.319,-16.849 0.956,-30.328c0.911,-15.483 1.183,-25.683 0.819,-30.602c-0.385,-5.198 -0.285,-9.302 0.593,-12.282c0.8,-2.716 2.618,-3.541 5.168,-3.541c2.55,0 4.117,1.225 5.394,3.149c1.924,2.899 1.323,7.12 1.687,14.041c0.364,6.922 -0,16.94 -1.093,30.054c-1.093,16.577 -1.275,26.777 -0.547,30.602c2.732,-1.822 8.835,-9.562 18.307,-23.225c6.375,-8.924 11.293,-15.209 14.754,-18.851c3.46,-3.644 6.921,-5.465 10.383,-5.465c2.367,-0 4.507,0.729 6.419,2.186c1.914,1.457 3.416,3.142 4.509,5.055c1.093,1.912 2.186,4.735 3.279,8.47c1.093,3.733 1.867,6.784 2.322,9.152c0.455,2.369 1.048,5.92 1.776,10.656c1.275,7.832 2.277,12.478 3.005,13.934c0.911,0.729 1.732,1.003 2.46,0.821c3.096,-0.365 6.375,-2.823 9.836,-7.378c0.911,-1.457 2.232,-2.322 3.962,-2.596Zm-338.612,19.172c3.825,-4.007 8.424,-10.656 13.797,-19.945c5.373,-9.29 10.155,-18.853 14.345,-28.689c-6.193,7.65 -11.749,15.483 -16.667,23.497c-6.375,10.383 -10.201,18.762 -11.475,25.137Zm121.953,-43.407c2.003,-15.482 1.821,-25.501 -0.547,-30.054c-1.639,-0.547 -3.188,-1.276 -4.644,-2.186c-5.101,0.91 -10.202,5.009 -15.302,12.295c-5.1,7.286 -7.832,13.843 -8.196,19.672c-0.183,0.547 -0.274,1.457 -0.274,2.731c-1.093,5.647 -1.228,11.34 -0.409,17.077c0.82,5.739 3.051,9.244 6.693,10.52c2.005,0.729 4.19,0.455 6.558,-0.82c2.551,-1.821 5.146,-4.827 7.787,-9.016c2.641,-4.189 4.645,-8.106 6.011,-11.749c1.367,-3.643 2.14,-6.466 2.323,-8.47Zm-460.479,-20.528c0.364,-0.91 0.819,-2.003 1.365,-3.278c-0.728,-0.911 -1.275,-1.913 -1.638,-3.006c-0.729,-4.189 -2.186,-6.921 -4.372,-8.196c-0.365,-0.365 -0.82,-0.547 -1.367,-0.547c-0.546,0 -1.184,0.091 -1.912,0.273c-6.739,2.004 -14.618,9.381 -23.634,22.132c-9.017,12.75 -13.433,23.224 -13.252,31.42c0,3.462 1.458,5.647 4.372,6.558c5.283,1.457 11.612,-2.323 18.989,-11.34c7.377,-9.016 14.527,-20.354 21.449,-34.016Zm245.083,-0c0.363,-0.91 0.819,-2.003 1.365,-3.278c-0.728,-0.911 -1.274,-1.913 -1.639,-3.006c-0.728,-4.189 -2.186,-6.921 -4.372,-8.196c-0.363,-0.365 -0.819,-0.547 -1.366,-0.547c-0.546,0 -1.183,0.091 -1.912,0.273c-6.739,2.004 -14.618,9.381 -23.634,22.132c-9.017,12.75 -13.433,23.224 -13.251,31.42c-0,3.462 1.457,5.647 4.371,6.558c5.282,1.457 11.612,-2.323 18.989,-11.34c7.377,-9.016 14.526,-20.354 21.449,-34.016Zm-623.264,-22.686c0.363,-0.91 0.819,-2.003 1.365,-3.277c-0.728,-0.912 -1.274,-1.914 -1.639,-3.007c-0.728,-4.189 -2.186,-6.921 -4.372,-8.196c-0.364,-0.364 -0.819,-0.546 -1.366,-0.546c-0.546,-0 -1.184,0.091 -1.912,0.272c-6.739,2.005 -14.618,9.382 -23.634,22.132c-9.017,12.75 -13.433,23.224 -13.252,31.42c0,3.462 1.458,5.648 4.372,6.558c5.282,1.458 11.612,-2.323 18.989,-11.339c7.377,-9.017 14.526,-20.355 21.449,-34.017Zm277.907,-140.428c-8.925,11.475 -18.351,30.054 -28.279,55.738c-9.927,25.682 -19.079,53.733 -27.458,84.152c14.207,-23.133 26.775,-44.9 37.705,-65.301c10.928,-20.4 19.261,-38.205 25,-53.415c5.737,-15.209 7.514,-24.909 5.328,-29.099c-0.365,-0.363 -1.093,-0.637 -2.186,-0.819c-2.368,-0 -5.738,2.914 -10.11,8.744Zm297.542,-4.646c-10.929,9.107 -22.951,27.87 -36.065,56.284c-13.116,28.416 -22.86,56.649 -29.235,84.701c23.314,-34.063 41.621,-65.119 54.917,-93.171c13.298,-28.051 19.126,-45.263 17.487,-51.639c-1.822,-0 -4.189,1.276 -7.104,3.825Zm-494.848,102.452c2.914,-5.646 5.919,-11.658 9.016,-18.033l-4.372,0c-1.639,6.011 -3.187,12.022 -4.644,18.033Zm45.082,-117.214c-9.836,6.558 -22.131,35.337 -36.885,86.34c1.456,0.181 3.733,0.363 6.83,0.546c11.111,-22.951 19.581,-42.396 25.41,-58.333c5.829,-15.939 7.742,-25.73 5.738,-29.372c-0,0.181 -0.365,0.455 -1.093,0.819Z" style="fill:#fff;fill-rule:nonzero;"/></svg>