<?xml version="1.0" encoding="UTF-8" standalone="no"?><!DOCTYPE svg PUBLIC "-//W3C//DTD SVG 1.1//EN" "http://www.w3.org/Graphics/SVG/1.1/DTD/svg11.dtd"><svg width="100%" height="100%" viewBox="0 0 2799 1451" version="1.1" xmlns="http://www.w3.org/2000/svg" xmlns:xlink="http://www.w3.org/1999/xlink" xml:space="preserve" xmlns:serif="http://www.serif.com/" style="fill-rule:evenodd;clip-rule:evenodd;stroke-linecap:round;stroke-linejoin:round;stroke-miterlimit:2;">
<style type="text/css">    #fRCurve {
        stroke-dasharray: 1702 !important;
        stroke-dashoffset: 1702;
        animation: 0.851s fRCurve ease-out;
        animation-delay: 0.0s;
        animation-fill-mode: forwards ;
    }
    
    @keyframes fRCurve {
        0% {
            stroke-dashoffset: 1702;
        }
        100% {
            stroke-dashoffset: 0;
        }
    }


    #fRStroke {
        stroke-dasharray: 1270 !important;
        stroke-dashoffset: 1270;
        animation: 0.635s fRStroke ease-out;
        animation-delay: 0.04s;
        animation-fill-mode: forwards ;
    }
    
    @keyframes fRStroke {
        0% {
            stroke-dashoffset: 1270;
        }
        100% {
            stroke-dashoffset: 0;
        }
    }


    #fa1 {
        stroke-dasharray: 703 !important;
        stroke-dashoffset: 703;
        animation: 0.3515s fa1 ease-out;
        animation-delay: 0.08s;
        animation-fill-mode: forwards ;
    }
    
    @keyframes fa1 {
        0% {
            stroke-dashoffset: 703;
        }
        100% {
            stroke-dashoffset: 0;
        }
    }


    #ftBody {
        stroke-dasharray: 973 !important;
        stroke-dashoffset: 973;
        animation: 0.4865s ftBody ease-out;
        animation-delay: 0.12s;
        animation-fill-mode: forwards ;
    }
    
    @keyframes ftBody {
        0% {
            stroke-dashoffset: 973;
        }
        100% {
            stroke-dashoffset: 0;
        }
    }


    #ftStroke {
        stroke-dasharray: 440 !important;
        stroke-dashoffset: 440;
        animation: 0.22s ftStroke ease-out;
        animation-delay: 0.16s;
        animation-fill-mode: forwards ;
    }
    
    @keyframes ftStroke {
        0% {
            stroke-dashoffset: 440;
        }
        100% {
            stroke-dashoffset: 0;
        }
    }


    #fc {
        stroke-dasharray: 409 !important;
        stroke-dashoffset: 409;
        animation: 0.2045s fc ease-out;
        animation-delay: 0.2s;
        animation-fill-mode: forwards ;
    }
    
    @keyframes fc {
        0% {
            stroke-dashoffset: 409;
        }
        100% {
            stroke-dashoffset: 0;
        }
    }


    #fh {
        stroke-dasharray: 1471 !important;
        stroke-dashoffset: 1471;
        animation: 0.7355s fh ease-out;
        animation-delay: 0.24s;
        animation-fill-mode: forwards ;
    }
    
    @keyframes fh {
        0% {
            stroke-dashoffset: 1471;
        }
        100% {
            stroke-dashoffset: 0;
        }
    }


    #fa2 {
        stroke-dasharray: 701 !important;
        stroke-dashoffset: 701;
        animation: 0.3505s fa2 ease-out;
        animation-delay: 0.28s;
        animation-fill-mode: forwards ;
    }
    
    @keyframes fa2 {
        0% {
            stroke-dashoffset: 701;
        }
        100% {
            stroke-dashoffset: 0;
        }
    }


    #fd {
        stroke-dasharray: 1382 !important;
        stroke-dashoffset: 1382;
        animation: 0.691s fd ease-out;
        animation-delay: 0.32s;
        animation-fill-mode: forwards ;
    }
    
    @keyframes fd {
        0% {
            stroke-dashoffset: 1382;
        }
        100% {
            stroke-dashoffset: 0;
        }
    }


    #fa3 {
        stroke-dasharray: 701 !important;
        stroke-dashoffset: 701;
        animation: 0.3505s fa3 ease-out;
        animation-delay: 0.36s;
        animation-fill-mode: forwards ;
    }
    
    @keyframes fa3 {
        0% {
            stroke-dashoffset: 701;
        }
        100% {
            stroke-dashoffset: 0;
        }
    }


    #fp {
        stroke-dasharray: 1586 !important;
        stroke-dashoffset: 1586;
        animation: 0.793s fp ease-out;
        animation-delay: 0.4s;
        animation-fill-mode: forwards ;
    }
    
    @keyframes fp {
        0% {
            stroke-dashoffset: 1586;
        }
        100% {
            stroke-dashoffset: 0;
        }
    }


    #fo {
        stroke-dasharray: 487 !important;
        stroke-dashoffset: 487;
        animation: 0.2435s fo ease-out;
        animation-delay: 0.44s;
        animation-fill-mode: forwards ;
    }
    
    @keyframes fo {
        0% {
            stroke-dashoffset: 487;
        }
        100% {
            stroke-dashoffset: 0;
        }
    }


    #fr {
        stroke-dasharray: 482 !important;
        stroke-dashoffset: 482;
        animation: 0.241s fr ease-out;
        animation-delay: 0.48s;
        animation-fill-mode: forwards ;
    }
    
    @keyframes fr {
        0% {
            stroke-dashoffset: 482;
        }
        100% {
            stroke-dashoffset: 0;
        }
    }


    #fn {
        stroke-dasharray: 434 !important;
        stroke-dashoffset: 434;
        animation: 0.217s fn ease-out;
        animation-delay: 0.52s;
        animation-fill-mode: forwards ;
    }
    
    @keyframes fn {
        0% {
            stroke-dashoffset: 434;
        }
        100% {
            stroke-dashoffset: 0;
        }
    }


    #etStroke {
        stroke-dasharray: 62 !important;
        stroke-dashoffset: 62;
        animation: 0.031s etStroke ease-out;
        animation-delay: 0.56s;
        animation-fill-mode: forwards ;
    }
    
    @keyframes etStroke {
        0% {
            stroke-dashoffset: 62;
        }
        100% {
            stroke-dashoffset: 0;
        }
    }


    #etCurve {
        stroke-dasharray: 705 !important;
        stroke-dashoffset: 705;
        animation: 0.3525s etCurve ease-out;
        animation-delay: 0.6s;
        animation-fill-mode: forwards ;
    }
    
    @keyframes etCurve {
        0% {
            stroke-dashoffset: 705;
        }
        100% {
            stroke-dashoffset: 0;
        }
    }


    #tS {
        stroke-dasharray: 2372 !important;
        stroke-dashoffset: 2372;
        animation: 1.186s tS ease-out;
        animation-delay: 0.64s;
        animation-fill-mode: forwards ;
    }
    
    @keyframes tS {
        0% {
            stroke-dashoffset: 2372;
        }
        100% {
            stroke-dashoffset: 0;
        }
    }


    #ti {
        stroke-dasharray: 362 !important;
        stroke-dashoffset: 362;
        animation: 0.181s ti ease-out;
        animation-delay: 0.68s;
        animation-fill-mode: forwards ;
    }
    
    @keyframes ti {
        0% {
            stroke-dashoffset: 362;
        }
        100% {
            stroke-dashoffset: 0;
        }
    }


    #tiDot {
        stroke-dasharray: 20 !important;
        stroke-dashoffset: 20;
        animation: 0.01s tiDot ease-out;
        animation-delay: 0.72s;
        animation-fill-mode: forwards ;
    }
    
    @keyframes tiDot {
        0% {
            stroke-dashoffset: 20;
        }
        100% {
            stroke-dashoffset: 0;
        }
    }


    #tr1 {
        stroke-dasharray: 483 !important;
        stroke-dashoffset: 483;
        animation: 0.2415s tr1 ease-out;
        animation-delay: 0.76s;
        animation-fill-mode: forwards ;
    }
    
    @keyframes tr1 {
        0% {
            stroke-dashoffset: 483;
        }
        100% {
            stroke-dashoffset: 0;
        }
    }


    #ta {
        stroke-dasharray: 703 !important;
        stroke-dashoffset: 703;
        animation: 0.3515s ta ease-out;
        animation-delay: 0.8s;
        animation-fill-mode: forwards ;
    }
    
    @keyframes ta {
        0% {
            stroke-dashoffset: 703;
        }
        100% {
            stroke-dashoffset: 0;
        }
    }


    #tk {
        stroke-dasharray: 1625 !important;
        stroke-dashoffset: 1625;
        animation: 0.8125s tk ease-out;
        animation-delay: 0.84s;
        animation-fill-mode: forwards ;
    }
    
    @keyframes tk {
        0% {
            stroke-dashoffset: 1625;
        }
        100% {
            stroke-dashoffset: 0;
        }
    }


    #to {
        stroke-dasharray: 487 !important;
        stroke-dashoffset: 487;
        animation: 0.2435s to ease-out;
        animation-delay: 0.88s;
        animation-fill-mode: forwards ;
    }
    
    @keyframes to {
        0% {
            stroke-dashoffset: 487;
        }
        100% {
            stroke-dashoffset: 0;
        }
    }


    #tr2 {
        stroke-dasharray: 483 !important;
        stroke-dashoffset: 483;
        animation: 0.2415s tr2 ease-out;
        animation-delay: 0.92s;
        animation-fill-mode: forwards ;
    }
    
    @keyframes tr2 {
        0% {
            stroke-dashoffset: 483;
        }
        100% {
            stroke-dashoffset: 0;
        }
    }


    #tn {
        stroke-dasharray: 493 !important;
        stroke-dashoffset: 493;
        animation: 0.2465s tn ease-out;
        animation-delay: 0.96s;
        animation-fill-mode: forwards ;
    }
    
    @keyframes tn {
        0% {
            stroke-dashoffset: 493;
        }
        100% {
            stroke-dashoffset: 0;
        }
    }
</style>
<path id="Mask" d="M1679.87,1079.01c-5.895,6.685 -12.945,14.302 -21.158,22.857c-12.525,13.049 -25.747,23.659 -39.667,31.837c-13.92,8.177 -26.618,12.264 -38.1,12.264c-7.305,0 -14.093,-1.564 -20.355,-4.696c-7.65,-4.525 -12.435,-13.223 -14.355,-26.096c-1.905,-12.874 -1.125,-27.836 2.355,-44.883c2.655,-13.002 13.845,-53.88 15.082,-62.055c0.323,-2.13 0.51,-4.175 0.368,-6.06c-0.083,-0.974 -0.015,-1.941 -0.653,-2.568c-1.297,-1.269 -3.562,-1.308 -6.705,-1.35c-10.597,-0.147 -25.14,4.793 -38.88,10.395c-13.087,5.344 -25.44,11.505 -33.42,15.688l0.008,0.023c13.575,26.79 18.442,55.146 14.617,85.069c-6.96,54.626 -39.315,111.514 -97.072,170.663c-56.37,57.408 -114.99,97.422 -175.883,120.038c-56.715,20.875 -93.945,17.047 -111.69,-11.482c-27.832,-44.885 -3.652,-106.992 72.548,-186.321c66.802,-69.586 154.132,-132.04 261.997,-187.363c-10.095,-10.438 -22.357,-18.613 -36.795,-24.529c-14.445,-5.914 -30.532,-9.393 -48.277,-10.436c-17.745,-1.044 -33.75,-1.221 -48.015,-0.524c-14.265,0.697 -30.795,2.261 -49.583,4.697c-10.432,1.044 -24.007,2.872 -40.71,5.481c-16.695,2.608 -32.445,4.957 -47.227,7.045c-14.79,2.087 -28.448,3.655 -40.973,4.696c-11.827,1.741 -25.747,2.176 -41.752,1.306c-16.005,-0.87 -29.228,-4.088 -39.66,-9.654c-10.785,-6.264 -18.27,-14.268 -22.448,-24.009c-4.17,-9.743 -5.13,-20.267 -2.865,-31.576c2.258,-11.306 5.475,-21.831 9.653,-31.573c4.177,-9.742 9.217,-19.31 15.135,-28.705c36.877,-57.411 95.332,-111.167 175.357,-161.268c35.49,-22.269 69.765,-39.753 102.818,-52.453c33.052,-12.696 65.587,-17.654 97.597,-14.871c38.618,3.48 62.108,18.091 70.455,43.838c1.74,6.611 2.873,13.309 3.39,20.093c0.525,6.784 -0.172,14.179 -2.085,22.18c-1.912,8.004 -3.57,14.7 -4.957,20.093c-1.395,5.393 -4.178,12.7 -8.355,21.921c-4.17,9.219 -7.043,15.397 -8.61,18.528c-1.568,3.132 -4.605,9.393 -9.128,18.788c-2.437,4.522 -6.007,6.96 -10.702,7.307c-4.695,0.347 -8.438,-1.132 -11.22,-4.437c-2.783,-3.305 -3.135,-7.219 -1.043,-11.742c1.043,-2.088 2.61,-5.131 4.695,-9.133c2.085,-4.002 3.825,-7.395 5.22,-10.177c1.388,-2.785 3.128,-6.351 5.22,-10.7c2.085,-4.35 3.825,-8.175 5.213,-11.481c1.395,-3.305 2.962,-7.045 4.702,-11.221c1.74,-4.175 3.045,-8.09 3.915,-11.744c0.87,-3.652 1.65,-7.392 2.348,-11.221c0.697,-3.826 0.952,-7.566 0.78,-11.221c-0.173,-3.652 -0.608,-7.219 -1.305,-10.698c-5.22,-22.963 -25.395,-34.619 -60.54,-34.969c-34.793,-0.694 -77.243,11.483 -127.343,36.534c-44.535,22.268 -86.205,49.233 -124.995,80.896c-38.797,31.661 -69.847,66.281 -93.157,103.857c-22.275,35.839 -25.928,60.716 -10.965,74.633c4.177,3.827 9.48,6.785 15.922,8.872c6.435,2.088 14.175,3.044 23.22,2.87c9.045,-0.173 16.268,-0.435 21.66,-0.782c5.393,-0.347 13.395,-1.391 24.008,-3.131c10.612,-1.739 16.612,-2.609 18.007,-2.609c11.13,-1.393 27.135,-3.914 48.015,-7.569c20.873,-3.652 38.708,-6.436 53.498,-8.351c14.782,-1.912 31.395,-3.652 49.837,-5.217c18.443,-1.567 36.098,-1.305 52.973,0.782c16.875,2.088 32.797,5.741 47.752,10.96c21.578,7.655 39.495,20.702 53.76,39.142l0.113,0.151c10.702,-5.657 30.307,-15.477 49.357,-22.176c13.17,-4.631 26.138,-7.686 36.195,-7.548c11.993,0.164 19.425,4.033 24.128,9.032c5.017,5.338 7.372,12.556 7.29,20.989c-0.113,10.899 -10.178,44.271 -11.4,49.394c-4.695,19.66 -7.215,34.881 -7.568,45.667c-0.345,10.785 0.698,17.745 3.135,20.877c11.483,6.263 28.703,-0.435 51.668,-20.093c22.965,-19.66 44.017,-42.711 63.15,-69.152c0.922,-1.236 1.972,-2.248 3.135,-3.038c6.592,-29.751 14.767,-64.059 24.525,-102.909c0.697,-3.132 2.52,-5.567 5.482,-7.308c2.955,-1.738 6,-2.173 9.135,-1.303c3.128,0.868 5.565,2.697 7.305,5.479c1.74,2.784 2.258,5.916 1.56,9.395c-12.172,49.06 -22.612,94.638 -31.312,136.738c15.307,-29.923 32.445,-53.148 51.412,-69.674c18.96,-16.528 39.053,-23.398 60.278,-20.616c3.48,0.347 6.262,1.826 8.347,4.437c2.085,2.609 2.963,5.567 2.61,8.873c-0.345,3.304 -1.912,6.001 -4.695,8.088c-2.782,2.088 -5.745,2.958 -8.872,2.609c-16.005,-2.085 -32.1,4.96 -48.278,21.139c-16.177,16.179 -30.27,36.881 -42.27,62.105c-12.007,25.226 -22.357,52.973 -31.057,83.243c-1.388,5.569 -4.868,8.525 -10.44,8.874c-0.345,0.347 -0.69,0.521 -1.043,0.521c-5.22,0 -8.872,-2.261 -10.957,-6.784c-4.733,-9.661 -2.205,-40.163 7.59,-91.488Zm-205.913,-13.415c-2.437,-11.133 -6.09,-21.399 -10.965,-30.791c-140.212,70.282 -240.42,148.568 -300.615,234.855c-4.17,5.916 -8.175,12.003 -12,18.266c-3.825,6.264 -7.74,14.006 -11.745,23.225c-3.997,9.221 -6.96,17.832 -8.872,25.835c-1.913,8.002 -2.175,16.006 -0.78,24.007c1.387,8.004 4.867,14.614 10.432,19.834c12.18,11.829 36.885,11.133 74.115,-2.088c62.978,-22.269 122.82,-63.674 179.535,-124.214c65.063,-69.934 92.025,-132.912 80.895,-188.929Zm540.765,-2.128c4.92,-23.829 10.56,-48.692 16.92,-74.591c0.345,-1.044 0.698,-2.262 1.043,-3.654c10.44,-41.403 21.307,-79.677 32.625,-114.817c11.295,-35.142 24.622,-69.153 39.93,-102.034c15.307,-32.878 30.615,-56.799 45.922,-71.761c14.948,-14.613 30.098,-21.745 45.413,-21.398c9.375,0 16.005,3.827 19.815,11.483c4.867,9.742 2.347,27.312 -7.553,52.712c-9.922,25.398 -24.982,54.886 -45.157,88.461c-20.183,33.577 -38.715,63.412 -55.575,89.506c-16.89,26.097 -34.545,52.018 -52.988,77.766c-4.162,17.049 -8.167,34.271 -11.992,51.667c19.477,-22.615 43.83,-39.49 73.072,-50.624c5.903,-2.437 11.993,-4.525 18.263,-6.263c3.472,-0.696 6.607,-0.261 9.397,1.305c2.775,1.565 4.695,3.915 5.73,7.046c0.36,2.435 0.36,4.608 0,6.523c-0.337,1.914 -1.305,3.654 -2.865,5.219c-1.575,1.564 -3.405,2.696 -5.475,3.393c-4.537,1.044 -8.887,2.435 -13.057,4.175c-40.358,14.612 -69.938,43.491 -88.718,86.635c5.91,9.047 12.87,16.093 20.88,21.136c8.003,5.046 17.04,8.09 27.143,9.134c23.31,2.784 48.27,-2.956 74.872,-17.223c26.453,-14.172 47.145,-28.859 62.093,-44.063c0.202,-2.638 0.472,-5.346 0.81,-8.126c0.337,-2.437 0.525,-4.002 0.525,-4.699c1.035,-10.089 4.687,-21.483 10.95,-34.183c6.27,-12.701 14.977,-24.095 26.092,-34.184c11.138,-10.092 22.793,-15.135 34.965,-15.135c8.363,-0 15.308,2.782 20.88,8.349c29.265,11.128 52.688,11.072 70.32,-0.168c4.44,-18.717 9.353,-38.848 14.768,-60.372c0.675,-3.132 2.497,-5.567 5.475,-7.308c2.955,-1.738 6,-2.173 9.135,-1.303c3.135,0.868 5.565,2.697 7.305,5.479c1.732,2.784 2.25,5.916 1.552,9.395c-12.172,49.06 -22.612,94.638 -31.312,136.738c15.307,-29.923 32.437,-53.148 51.427,-69.674c18.96,-16.528 39.045,-23.398 60.263,-20.616c3.472,0.347 6.27,1.826 8.362,4.437c2.078,2.609 2.955,5.567 2.595,8.873c-0.337,3.304 -1.92,6.001 -4.687,8.088c-2.798,2.088 -5.753,2.958 -8.888,2.609c-15.982,-2.085 -32.085,4.96 -48.27,21.139c-16.162,16.179 -30.255,36.881 -42.27,62.105c-12,25.226 -22.342,52.973 -31.05,83.243c-1.395,5.569 -4.867,8.525 -10.44,8.874c-0.36,0.347 -0.697,0.521 -1.035,0.521c-5.227,0 -8.88,-2.261 -10.98,-6.784c-6.45,-13.169 0.608,-65.051 21.15,-155.645c-14.97,4.104 -31.927,3.971 -50.887,-0.403c1.74,12.177 1.215,29.226 -1.575,51.145c-1.38,10.092 -6,23.139 -13.823,39.144c-7.822,16.005 -17.475,27.486 -28.972,34.446c-6.608,4.175 -13.575,6.263 -20.88,6.263c-4.17,-0 -8.16,-0.697 -11.993,-2.088c-15.712,-5.389 -25.275,-18.167 -28.68,-38.335c-15.397,12.766 -33.84,24.587 -55.35,35.462c-29.917,15.135 -58.275,21.313 -85.065,18.528c-21.915,-2.434 -40.357,-11.655 -55.32,-27.661c-4.53,15.658 -7.312,30.619 -8.355,44.884l0,2.088c-1.042,8.004 -4.695,12.177 -10.957,12.527l-1.568,-0c-2.782,-0 -5.302,-0.871 -7.567,-2.612c-2.258,-1.737 -3.743,-4.175 -4.433,-7.304c-0.352,-2.437 -0.18,-6.787 0.518,-13.05c0.922,-11.96 3.87,-31.762 8.842,-59.401c-5.482,5.156 -10.965,9.821 -16.44,13.996c-7.305,5.567 -15.66,10.439 -25.05,14.615c-9.397,4.175 -18.27,6.263 -26.617,6.263c-8.355,-0 -16.005,-2.088 -22.965,-6.263c-10.44,-6.264 -15.833,-17.573 -16.178,-33.925c-23.317,28.531 -45.405,40.012 -66.285,34.445c-17.047,-4.87 -25.747,-16.873 -26.092,-36.01c-0.353,-13.57 4.432,-29.749 14.347,-48.537c9.923,-18.789 21.84,-35.489 35.753,-50.103c13.92,-14.614 26.445,-23.486 37.575,-26.617c9.742,-3.132 18.615,-2.261 26.617,2.611c4.53,2.781 8.528,6.957 12.008,12.524l-0,-1.044c1.74,-2.783 4.087,-4.784 7.042,-6.002c2.955,-1.218 5.918,-1.13 8.873,0.261c2.962,1.392 5.13,3.653 6.525,6.785c1.395,3.131 1.395,6.089 -0,8.874c-4.868,12.177 -10.26,24.527 -16.178,37.054c-7.657,19.831 -12.615,36.88 -14.872,51.147c-2.265,14.265 -1.133,23.484 3.39,27.659c4.867,3.481 10.785,4.176 17.745,2.088c6.96,-2.088 13.74,-5.132 20.355,-9.134c6.607,-3.999 13.477,-9.219 20.617,-15.655c7.133,-6.437 13.133,-12.353 18,-17.746c3.968,-4.39 7.47,-8.491 10.515,-12.305Zm687.578,54.84c3.465,-0 6.33,1.217 8.61,3.655c2.25,2.435 3.382,5.304 3.382,8.61c0,3.305 -1.222,6.175 -3.652,8.613c-11.835,11.133 -23.835,16.699 -36.008,16.699c-5.932,0 -11.317,-1.738 -16.185,-5.219c-4.875,-3.132 -8.797,-8.611 -11.752,-16.439c-2.948,-7.83 -4.868,-15.049 -5.723,-21.659c-0.877,-6.61 -2.01,-16.353 -3.405,-29.227c-2.077,-22.965 -4.35,-36.533 -6.787,-40.708c-8.34,2.435 -29.4,24.181 -63.15,65.239c-12.173,14.958 -21.218,25.571 -27.12,31.834c-5.933,6.263 -10.98,10.351 -15.15,12.265c-4.17,1.914 -8.168,1.479 -12,-1.305c-3.833,-2.783 -5.565,-6.437 -5.228,-10.96c2.1,-21.571 14.453,-77.416 37.065,-167.531c1.035,-3.131 2.955,-5.567 5.73,-7.307c2.79,-1.738 5.835,-2.262 9.15,-1.565c3.293,0.697 5.82,2.523 7.553,5.481c1.74,2.956 2.28,6.002 1.582,9.134c-11.145,42.447 -21.06,84.546 -29.767,126.299c2.437,-3.132 5.572,-7.131 9.405,-12.004c22.95,-27.835 40.695,-47.492 53.227,-58.975c12.54,-11.482 23.655,-16.526 33.413,-15.135c4.875,0.697 8.955,2.609 12.27,5.74c3.292,3.132 5.812,8.177 7.552,15.135c1.733,6.96 3.045,13.05 3.923,18.267c0.855,5.219 1.822,13.223 2.865,24.009c2.79,30.27 6.082,46.796 9.915,49.58c2.1,1.392 5.392,0.957 9.922,-1.305c4.508,-2.262 8.52,-4.958 11.993,-8.089c2.1,-2.088 4.875,-3.132 8.37,-3.132Zm-397.17,-55.321c3.81,-29.575 3.472,-48.712 -1.058,-57.41c-3.135,-1.044 -6.09,-2.435 -8.865,-4.176c-9.735,1.741 -19.5,9.568 -29.242,23.486c-9.735,13.918 -14.948,26.444 -15.645,37.577c-0.36,1.044 -0.518,2.784 -0.518,5.22c-2.1,10.785 -2.347,21.66 -0.787,32.619c1.552,10.959 5.835,17.658 12.78,20.093c3.832,1.393 8.002,0.87 12.54,-1.565c4.867,-3.479 9.825,-9.221 14.857,-17.223c5.048,-8.004 8.88,-15.484 11.498,-22.442c2.587,-6.96 4.08,-12.352 4.44,-16.179Zm-388.598,-35.489c0.69,-1.741 1.56,-3.828 2.61,-6.263c-1.395,-1.741 -2.437,-3.653 -3.135,-5.74c-1.387,-8.004 -4.177,-13.223 -8.347,-15.659c-0.698,-0.696 -1.568,-1.044 -2.61,-1.044c-1.043,0 -2.265,0.174 -3.66,0.524c-12.87,3.826 -27.915,17.917 -45.143,42.273c-17.22,24.356 -25.657,44.361 -25.312,60.019c-0,6.611 2.782,10.786 8.355,12.525c10.087,2.784 22.177,-4.435 36.27,-21.658c14.092,-17.223 27.75,-38.882 40.972,-64.977Zm-1040.05,-38.786c4.567,-3.09 8.722,-2.55 12.465,1.624c3.75,4.171 3.615,8.885 -0.405,14.141c-9.713,12.979 -18.45,28.82 -26.228,47.519c-7.785,18.7 -12,35.158 -12.652,49.378c-0.45,4.326 -2.58,7.65 -6.39,9.967c-3.81,2.318 -7.455,2.859 -10.95,1.624c-3.488,-1.238 -5.168,-4.02 -5.018,-8.347c1.41,-23.799 9.99,-50.534 25.733,-80.206c-10.29,4.017 -20.985,6.799 -32.07,8.343c-11.093,1.548 -21.84,2.012 -32.235,1.392c-10.402,-0.618 -20.067,-2.78 -28.993,-6.491c-8.928,-3.709 -15.911,-8.809 -20.948,-15.3c-7.329,-9.271 -10.92,-18.699 -10.776,-28.279c0.144,-9.582 2.766,-18.314 7.863,-26.196c5.1,-7.882 12.753,-16.226 22.962,-25.035c10.206,-8.808 19.91,-16.073 29.112,-21.79c9.195,-5.718 19.8,-11.977 31.822,-18.776c-13.822,-4.018 -25.125,-10.897 -33.918,-20.632c-8.793,-9.735 -13.575,-21.173 -14.35,-34.308c-0.774,-13.137 4.137,-26.967 14.736,-41.495c11.632,-15.144 26.715,-24.417 45.24,-27.817c18.525,-3.401 36.022,-1.854 52.5,4.637c16.47,6.489 28.897,15.762 37.282,27.817c2.183,3.4 2.1,6.953 -0.255,10.662c-2.355,3.709 -5.377,5.95 -9.067,6.723c-3.69,0.774 -6.968,-0.386 -9.818,-3.476c-8.077,-12.056 -21.375,-20.323 -39.907,-24.805c-18.525,-4.482 -35.123,-1.932 -49.793,7.65c-12.817,9.582 -19.455,19.163 -19.905,28.745c-0.457,9.582 2.348,18.236 8.4,25.962c6.06,7.729 14.46,13.523 25.215,17.387c10.755,3.862 21.09,4.868 30.998,3.012c5.16,-1.235 8.565,0.93 10.215,6.492c1.642,5.564 -0.098,9.737 -5.22,12.516c-2.438,1.548 -8.16,4.638 -17.168,9.274c-9.007,4.637 -17.032,8.964 -24.082,12.982c-7.043,4.018 -15.413,8.964 -25.095,14.835c-9.694,5.873 -17.594,11.67 -23.701,17.387c-6.108,5.717 -11.422,11.744 -15.938,18.08c-4.518,6.337 -6.408,12.672 -5.67,19.01c0.737,6.336 4.17,12.286 10.299,17.85c12.363,10.508 30.382,14.371 54.052,11.588c23.67,-2.779 42.855,-9.889 57.54,-21.326c1.095,-0.926 2.468,-1.7 4.118,-2.318Zm705.495,-44.128l7.312,-1.826c6.518,-1.631 10.485,-8.246 8.85,-14.763c-1.627,-6.519 -8.242,-10.487 -14.76,-8.856l-7.305,1.826c-6.517,1.63 -10.485,8.245 -8.857,14.763c1.627,6.517 8.242,10.486 14.76,8.856Zm586.41,-230.75c-31.32,30.967 -62.813,101.249 -94.47,210.849c22.957,-34.446 43.65,-67.065 62.092,-97.856c18.443,-30.793 33.233,-57.846 44.37,-81.158c11.138,-23.31 16.013,-38.619 14.61,-45.926c-8.34,0.348 -17.22,5.043 -26.602,14.091Zm-1331.36,-266.619c1.005,-9.87 2.303,-19.222 3.893,-28.05c-0,-0.352 0.18,-0.525 0.525,-0.525c7.305,-35.49 16.702,-74.977 28.177,-118.47c-93.591,-4.522 -147.173,-0.352 -160.741,12.525c-2.088,2.085 -4.872,3.128 -8.351,3.128c-3.479,-0 -6.437,-1.215 -8.872,-3.653c-2.088,-2.43 -3.132,-5.302 -3.132,-8.61c0,-3.307 1.218,-6.172 3.653,-8.61c18.79,-17.745 80.2,-24.007 184.231,-18.787c29.925,-106.47 57.06,-167.88 81.42,-184.238c7.305,-4.522 14.61,-6 21.915,-4.432c7.312,1.567 12.532,6 15.66,13.312c1.042,1.733 1.74,4.26 2.085,7.568c0.352,3.3 -0.083,9.562 -1.298,18.787c-1.222,9.218 -3.487,19.92 -6.787,32.093c-3.308,12.18 -9.135,28.882 -17.483,50.107c-8.355,21.218 -18.795,44.88 -31.32,70.98c11.138,0.69 22.793,1.56 34.973,2.603c14.962,1.395 28.702,1.92 41.227,1.567c12.525,-0.345 23.835,-1.305 33.923,-2.872c10.095,-1.56 18.877,-3.48 26.355,-5.738c7.485,-2.265 13.83,-4.612 19.05,-7.042c5.22,-2.438 9.225,-4.703 12.007,-6.788c2.783,-2.085 4.523,-4.005 5.22,-5.745c1.388,-2.782 3.653,-4.785 6.788,-6c3.127,-1.215 6.255,-1.215 9.39,0c3.127,1.215 5.302,3.308 6.525,6.263c1.215,2.962 1.125,6 -0.263,9.135c-5.22,13.222 -22.44,24.442 -51.667,33.66c-29.228,9.225 -66.285,11.917 -111.165,8.092c-14.963,-1.387 -29.573,-2.61 -43.838,-3.652c-18.097,36.877 -39.495,77.415 -64.2,121.605c-5.22,28.875 -6.78,58.275 -4.695,88.2c2.085,29.925 7.133,48.187 15.135,54.802c3.135,2.783 6.615,3.825 10.44,3.128c7.305,-0.698 15.135,-5.13 23.483,-13.305c8.355,-8.183 14.962,-15.75 19.837,-22.71c1.013,-1.628 2.303,-2.895 3.863,-3.81c0.45,-6.54 1.792,-13.53 4.035,-20.963c3.825,-12.697 9.135,-24.877 15.915,-36.532c6.787,-11.655 12.18,-20.528 16.185,-26.618c3.997,-6.09 7.74,-11.22 11.22,-15.397c13.912,-17.745 26.79,-24.525 38.617,-20.348c10.44,3.473 15.833,14.085 16.178,31.83c-0,3.48 -1.125,6.435 -3.39,8.873c-2.258,2.437 -5.13,3.652 -8.61,3.652c-2.438,0 -4.523,-0.517 -6.263,-1.56c-1.74,-1.042 -3.217,-2.437 -4.44,-4.177c-1.215,-1.74 -1.822,-3.825 -1.822,-6.263c-0,-2.782 -0.18,-5.22 -0.525,-7.305c-3.825,2.783 -7.478,6.263 -10.958,10.433c-9.742,12.877 -19.485,28.792 -29.227,47.76c-9.743,18.96 -13.92,34.53 -12.525,46.71c0.697,6.262 3.307,10.957 7.83,14.092c5.565,4.523 13.395,5.393 23.482,2.603c10.095,-2.783 20.88,-7.478 32.355,-14.085c11.483,-6.615 23.4,-14.7 35.753,-24.27c12.352,-9.57 23.49,-18.878 33.405,-27.923c9.915,-9.045 18.18,-17.22 24.787,-24.532c0.885,-0.885 1.823,-1.62 2.82,-2.198c5.61,-22.867 11.978,-46.492 19.103,-70.867c11.482,-40.71 23.482,-78.375 36.007,-112.995c12.525,-34.613 24.705,-64.538 36.533,-89.76c11.835,-25.23 22.965,-44.453 33.405,-57.675c13.222,-17.048 26.265,-25.575 39.142,-25.575c11.828,-0 20.183,4.702 25.05,14.092c5.573,10.785 4.44,29.318 -3.39,55.583c-7.83,26.272 -18.705,53.587 -32.617,81.937c-13.92,28.358 -30.878,60.023 -50.888,94.988c-20.002,34.972 -36.187,62.37 -48.54,82.2c-12.352,19.83 -24.09,38.445 -35.227,55.845c-6.263,25.747 -11.13,48.622 -14.61,68.632c-3.48,20.003 -5.22,35.228 -5.22,45.668c7.65,-10.793 22.44,-37.058 44.362,-78.81c25.748,-49.755 44.97,-83.16 57.668,-100.208c12.705,-17.047 24.787,-23.31 36.27,-18.787c4.53,1.395 8.355,4.177 11.482,8.355c3.135,4.17 5.573,8.43 7.305,12.78c1.748,4.35 3.398,10.702 4.965,19.05c1.56,8.355 2.61,15.225 3.128,20.617c0.525,5.393 1.305,13.485 2.347,24.27c3.48,36.188 7.485,56.535 12.008,61.065c4.867,4.868 10.44,7.133 16.702,6.78c5.565,-0.345 11.22,-2.61 16.958,-6.78c5.745,-4.177 10.177,-8.355 13.312,-12.532c0.338,-0.45 0.698,-0.878 1.073,-1.275c-0.323,-2.243 -0.51,-4.598 -0.555,-7.073c-0.345,-13.567 4.44,-29.745 14.355,-48.54c9.915,-18.787 21.832,-35.49 35.752,-50.1c13.913,-14.61 26.438,-23.482 37.575,-26.617c9.743,-3.128 18.615,-2.258 26.618,2.61c4.522,2.782 8.52,6.96 12,12.525l-0,-1.043c1.74,-2.782 4.087,-4.785 7.05,-6c2.955,-1.222 5.917,-1.132 8.872,0.263c2.955,1.387 5.13,3.652 6.525,6.78c1.388,3.135 1.388,6.09 0,8.872c-4.875,12.18 -10.267,24.533 -16.185,37.058c-7.65,19.83 -12.607,36.877 -14.872,51.142c-2.265,14.265 -1.133,23.49 3.39,27.66c4.875,3.48 10.792,4.178 17.752,2.093c6.953,-2.093 13.74,-5.13 20.348,-9.135c6.615,-4.005 13.485,-9.218 20.617,-15.66c7.133,-6.435 13.133,-12.345 18.008,-17.745c4.027,-4.455 7.582,-8.618 10.657,-12.488c7.808,-15.232 18.87,-30.21 33.18,-44.917c18.443,-18.96 34.62,-28.44 48.54,-28.44c3.48,-0 6.435,1.215 8.873,3.652c2.43,2.43 3.652,5.303 3.652,8.61c0,3.3 -1.222,6.173 -3.652,8.61c-2.438,2.438 -5.393,3.653 -8.873,3.653c-6.615,-0 -17.4,7.567 -32.362,22.702c-10.905,11.033 -19.59,22.568 -26.055,34.613c-0.398,1.485 -1.103,2.91 -2.123,4.267l-0.172,0.218c-1.47,3.03 -2.805,6.09 -4.005,9.18c-6.263,16.35 -5.745,28.185 1.567,35.49c14.963,8.347 49.23,-24.36 102.81,-98.123c7.305,-60.187 26.1,-125.43 56.37,-195.712c30.27,-70.283 58.628,-116.558 85.065,-138.825c14.618,-12.18 27.84,-16.005 39.668,-11.483c6.262,2.783 10.44,7.658 12.525,14.618c6.262,21.217 -7.395,64.89 -40.973,130.995c-33.57,66.105 -74.017,132.217 -121.335,198.322c-3.832,5.22 -6.615,9.045 -8.355,11.483c-2.782,26.445 -2.257,48.54 1.568,66.285c4.867,21.57 14.437,34.267 28.702,38.092c4.523,1.74 9.308,2.355 14.355,1.83c5.048,-0.525 9.653,-1.305 13.83,-2.347c4.178,-1.043 8.52,-2.873 13.043,-5.483c4.53,-2.61 8.445,-5.047 11.745,-7.305c3.307,-2.265 6.697,-5.047 10.177,-8.355c3.48,-3.3 6.263,-6.082 8.355,-8.347c2.085,-2.265 4.17,-4.785 6.263,-7.568c2.085,-2.782 3.48,-4.612 4.17,-5.482c0.697,-0.863 1.222,-1.478 1.567,-1.823l0,-0.525c0.803,-1.065 1.695,-1.972 2.685,-2.707c1.935,-10.538 6.345,-22.335 13.23,-35.393c9.923,-18.787 21.84,-35.49 35.753,-50.1c13.92,-14.61 26.445,-23.482 37.582,-26.617c9.735,-3.128 18.608,-2.258 26.618,2.61c4.522,2.782 8.52,6.96 12,12.525l-0,-1.043c1.74,-2.782 4.087,-4.785 7.042,-6c2.963,-1.222 5.918,-1.132 8.873,0.263c2.962,1.387 5.13,3.652 6.525,6.78c1.395,3.135 1.395,6.09 -0,8.872c-4.868,12.18 -10.26,24.533 -16.178,37.058c-7.657,19.83 -12.615,36.877 -14.872,51.142c-2.265,14.265 -1.133,23.49 3.39,27.66c4.867,3.48 10.785,4.178 17.745,2.093c6.96,-2.093 13.74,-5.13 20.355,-9.135c6.607,-4.005 13.477,-9.218 20.617,-15.66c7.073,-6.375 13.028,-12.248 17.88,-17.603c1.988,-9.007 3.938,-17.662 5.865,-25.972l25.05,-109.08c1.043,-3.128 2.955,-5.565 5.738,-7.305c2.79,-1.74 5.827,-2.265 9.142,-1.568c3.293,0.698 5.82,2.52 7.553,5.483c1.74,2.955 2.28,6 1.582,9.135c-0.697,1.387 -8.182,33.57 -22.447,96.547c5.22,-8.347 10.95,-16.522 17.212,-24.525c6.27,-8.002 14.003,-17.227 23.228,-27.667c9.217,-10.433 19.23,-19.395 30.007,-26.873c10.8,-7.485 21.24,-12.442 31.313,-14.872c14.97,-3.48 28.545,-1.043 40.717,7.305c7.643,5.22 12,13.912 13.058,26.092c0.045,0.63 0.09,1.268 0.112,1.928c13.485,-6.18 32.603,-10.913 58.485,-8.903c37.358,2.91 56.678,4.358 71.423,4.958c12.15,0.495 22.342,8.767 28.68,10.545c29.827,8.355 47.797,8.767 65.902,-5.85c0.36,-0.278 0.743,-0.533 1.103,-0.765c4.485,-18.923 9.472,-39.3 14.947,-61.103c0.675,-3.135 2.505,-5.565 5.475,-7.305c2.955,-1.74 6,-2.175 9.135,-1.305c3.135,0.87 5.565,2.693 7.305,5.475c1.733,2.79 2.258,5.918 1.553,9.398c-12.173,49.057 -22.613,94.642 -31.313,136.74c15.308,-29.925 32.445,-53.145 51.405,-69.675c18.983,-16.53 39.068,-23.4 60.285,-20.618c3.473,0.353 6.27,1.83 8.34,4.44c2.1,2.61 2.978,5.565 2.618,8.873c-0.338,3.3 -1.913,6 -4.688,8.085c-2.797,2.092 -5.752,2.962 -8.887,2.61c-16.005,-2.085 -32.078,4.957 -48.27,21.135c-16.163,16.185 -30.255,36.885 -42.27,62.107c-11.993,25.23 -22.343,52.973 -31.05,83.243c-1.395,5.572 -4.868,8.527 -10.433,8.872c-0.36,0.353 -0.705,0.525 -1.065,0.525c-5.205,0 -8.857,-2.257 -10.957,-6.78c-6.353,-13.012 0.435,-63.795 20.407,-152.362c-16.252,5.767 -35.017,6.202 -56.272,1.29c1.732,12.18 1.215,29.227 -1.583,51.15c-1.372,10.087 -5.992,23.137 -13.815,39.142c-7.83,16.005 -17.497,27.488 -28.972,34.44c-6.608,4.178 -13.575,6.27 -20.88,6.27c-4.17,0 -8.183,-0.697 -11.993,-2.092c-24.375,-8.348 -33.93,-34.448 -28.702,-78.285c0.337,-2.438 0.517,-4.005 0.517,-4.695c1.035,-10.095 4.688,-21.488 10.958,-34.185c4.935,-10.02 11.385,-19.23 19.365,-27.63c-8.925,-0.705 -19.14,-1.515 -30.165,-2.37c-34.673,-2.7 -53.34,9.667 -60.285,15.727l-0.068,0.375c-3.495,15.308 -9.765,33.053 -18.802,53.228c-9.045,20.182 -16.103,34.8 -21.128,43.845c-5.047,9.045 -8.79,15.48 -11.227,19.312c-12.173,19.83 -22.703,33.315 -31.568,40.448c-8.88,7.132 -16.792,8.61 -23.76,4.432c-10.44,-5.565 -13.912,-16.875 -10.44,-33.922c3.833,-18.443 14.7,-41.145 32.625,-68.108c17.925,-26.97 38.528,-50.887 61.845,-71.76c0.698,-3.135 1.215,-6.09 1.575,-8.872c1.035,-10.095 0.158,-16.005 -2.617,-17.745c-5.903,-4.523 -13.05,-5.745 -21.39,-3.653c-15.308,3.473 -32.198,15.57 -50.64,36.27c-18.443,20.7 -32.693,39.923 -42.795,57.668c-9.39,16.702 -24,69.15 -43.83,157.357c-19.838,88.199 -31.838,150.741 -36.015,187.621c-0.345,2.785 -1.65,5.22 -3.915,7.307c-2.258,2.088 -4.958,3.132 -8.085,3.132c-1.74,0 -3.308,-0.261 -4.703,-0.782c-1.387,-0.523 -2.602,-1.218 -3.652,-2.088c-1.043,-0.87 -1.913,-1.914 -2.61,-3.131c-0.69,-1.218 -1.043,-2.523 -1.043,-3.914c-2.085,-12.874 4.785,-62.628 20.618,-149.265c9.967,-54.547 19.35,-102.952 28.14,-145.215c-1.815,1.485 -3.623,2.918 -5.438,4.305c-7.305,5.565 -15.66,10.433 -25.05,14.61c-9.397,4.17 -18.27,6.263 -26.617,6.263c-8.355,-0 -16.005,-2.093 -22.965,-6.263c-10.44,-6.262 -15.833,-17.572 -16.178,-33.922c-23.317,28.53 -45.405,40.012 -66.285,34.447c-9.855,-2.82 -16.92,-8.017 -21.195,-15.6c-1.185,1.275 -2.467,2.648 -3.855,4.11c-6.262,6.615 -12.697,12.36 -19.312,17.228c-6.608,4.867 -14.783,9.307 -24.525,13.305c-9.743,4.005 -19.485,6.007 -29.228,6.007c-6.615,0 -13.222,-0.87 -19.83,-2.61c-23.662,-6.615 -38.797,-25.402 -45.412,-56.37c-2.43,-10.785 -3.653,-22.957 -3.653,-36.532c-26.092,33.405 -48.27,56.37 -66.54,68.895c-18.262,12.525 -34.357,13.912 -48.277,4.17c-0.345,-0 -0.69,-0.345 -1.043,-1.043c-8.595,-7.5 -13.492,-16.822 -14.685,-27.975c-4.5,4.088 -9,7.845 -13.5,11.28c-7.305,5.565 -15.652,10.433 -25.05,14.61c-9.39,4.17 -18.262,6.263 -26.617,6.263c-8.348,-0 -16.005,-2.093 -22.958,-6.263c-10.44,-6.262 -15.832,-17.572 -16.185,-33.922c-23.31,28.53 -45.405,40.012 -66.277,34.447c-5.108,-1.462 -9.465,-3.562 -13.073,-6.292c-4.05,4.155 -8.91,8.167 -14.595,12.03c-8.692,5.917 -17.917,9.217 -27.66,9.915c-13.215,1.042 -25.05,-3.48 -35.49,-13.568c-4.17,-4.177 -7.56,-10.612 -10.177,-19.312c-2.603,-8.7 -4.433,-16.703 -5.475,-24.008c-1.043,-7.305 -2.085,-18.262 -3.135,-32.88c-3.473,-37.92 -7.65,-59.145 -12.525,-63.667c-9.39,5.565 -31.14,41.227 -65.235,106.987c-20.528,39.66 -35.4,66.195 -44.625,79.59c-9.218,13.395 -17.828,20.093 -25.83,20.093l-2.093,-0c-8.002,-1.043 -13.215,-6.263 -15.652,-15.66c-4.403,-16.028 0.135,-54.473 13.62,-115.358c-3.473,3.128 -7.403,6.608 -11.798,10.455c-12.697,11.138 -25.132,21.143 -37.312,30.015c-12.18,8.873 -25.838,16.875 -40.973,24.008c-15.135,7.132 -28.44,10.695 -39.922,10.695c-10.785,-0 -20.01,-2.955 -27.66,-8.873c-4.628,-3.6 -8.325,-7.867 -11.093,-12.817c-2.445,2.797 -5.467,6.105 -9.075,9.93c-5.737,6.09 -12.18,11.31 -19.312,15.66c-7.133,4.35 -14.355,7.05 -21.66,8.092l-4.695,0c-9.398,0 -17.745,-3.135 -25.05,-9.397c-9.045,-8.003 -15.57,-22.875 -19.575,-44.625c-3.54,-19.253 -5.175,-38.37 -4.898,-57.353c-2.422,2.528 -5.227,5.378 -8.407,8.558c-7.305,7.305 -14.618,13.747 -21.923,19.312c-7.305,5.565 -15.652,10.44 -25.051,14.61c-9.392,4.178 -18.266,6.263 -26.615,6.263c-8.351,-0 -16.005,-2.085 -22.965,-6.263c-10.438,-6.262 -15.832,-17.572 -16.179,-33.922c-23.312,28.53 -45.405,40.012 -66.282,34.447c-17.047,-4.875 -25.745,-16.875 -26.095,-36.015c-0.347,-13.567 4.437,-29.745 14.353,-48.532c9.916,-18.788 21.833,-35.49 35.751,-50.108c13.917,-14.61 26.441,-23.482 37.577,-26.617c9.742,-3.128 18.614,-2.258 26.617,2.61c4.523,2.782 8.523,6.96 12.004,12.525l-0,-1.043c1.738,-2.782 4.087,-4.785 7.045,-6c2.958,-1.215 5.914,-1.132 8.872,0.263c2.958,1.387 5.132,3.652 6.525,6.78c1.391,3.135 1.391,6.09 0,8.872c-4.872,12.18 -10.265,24.533 -16.179,37.058c-7.657,19.83 -12.614,36.885 -14.875,51.142c-2.262,14.273 -1.13,23.49 3.393,27.668c4.869,3.48 10.785,4.17 17.743,2.085c6.96,-2.085 13.744,-5.13 20.354,-9.135c6.611,-3.998 13.485,-9.218 20.617,-15.653c7.133,-6.442 13.133,-12.352 18.008,-17.745c4.867,-5.392 9.045,-10.35 12.525,-14.872c1.507,-1.77 3.345,-3.03 5.497,-3.788Zm-195.472,309.618c6.96,2.088 9.394,6.787 7.307,14.091c-2.088,6.611 -6.437,9.743 -13.048,9.396l-3.131,-1.044c-161.791,-53.583 -278.348,-140.743 -349.676,-261.471c-1.392,-2.437 -1.739,-4.875 -1.044,-7.312c0.696,-2.43 2.002,-4.523 3.916,-6.263c1.912,-1.732 4.088,-2.782 6.523,-3.127c39.317,-8.7 78.632,-23.663 117.95,-44.888c39.317,-21.217 75.851,-46.095 109.6,-74.632c11.482,-9.743 22.268,-19.83 32.357,-30.27c10.09,-10.433 19.834,-21.833 29.227,-34.185c9.394,-12.345 17.396,-25.223 24.009,-38.618c6.61,-13.395 11.915,-27.052 15.917,-40.972c4.001,-13.913 5.914,-28.44 5.74,-43.575c-0.173,-15.135 -2.696,-30.015 -7.566,-44.625c-4.873,-16.35 -12.874,-30.443 -24.009,-42.278c-11.133,-11.827 -24.095,-20.962 -38.881,-27.397c-14.788,-6.435 -30.01,-11.22 -45.666,-14.348c-15.658,-3.135 -32.011,-4.702 -49.06,-4.702c-38.621,-0 -78.371,5.655 -119.253,16.965c-40.883,11.31 -79.418,27.225 -115.604,47.752c-36.184,20.528 -69.064,46.013 -98.638,76.463c-29.575,30.442 -51.844,63.585 -66.803,99.42c-2.088,4.522 -5.395,6.96 -9.918,7.305c-4.522,0.352 -8.348,-1.133 -11.48,-4.433c-3.132,-3.307 -3.655,-7.222 -1.567,-11.745c13.221,-30.967 31.487,-59.932 54.8,-86.895c23.312,-26.97 48.624,-50.107 75.936,-69.412c27.315,-19.313 57.149,-36.45 89.507,-51.413c14.962,-6.96 31.314,-13.395 49.06,-19.305c17.743,-5.917 36.795,-11.22 57.147,-15.922c20.354,-4.695 40.881,-8.003 61.585,-9.915c20.702,-1.913 41.23,-2.438 61.584,-1.568c20.354,0.87 39.491,4.178 57.411,9.923c17.917,5.737 34.096,13.567 48.536,23.482c14.439,9.915 26.53,23.31 36.272,40.185c9.742,16.875 16.006,36.45 18.787,58.718c3.482,27.832 1.221,55.582 -6.783,83.242c-8.002,27.66 -20.355,53.063 -37.054,76.193c-16.703,23.145 -36.448,45.15 -59.237,66.022c-22.79,20.88 -47.407,39.405 -73.849,55.583c-26.444,16.177 -53.147,30.187 -80.112,42.015c-26.965,11.827 -53.147,21.052 -78.548,27.66c67.848,107.167 177.1,185.8 327.756,235.9Zm-344.978,-609.58c1.044,-4.875 3.74,-8.093 8.09,-9.66c4.349,-1.56 8.35,-1.125 12.003,1.305c3.654,2.437 5.133,6.09 4.437,10.965c-22.963,135 -57.235,337.32 -102.816,606.97c-1.044,4.872 -3.74,8.09 -8.089,9.657c-4.349,1.565 -8.351,1.129 -12.004,-1.305c-3.652,-2.436 -5.131,-6.09 -4.437,-10.96c22.966,-134.997 57.237,-337.325 102.816,-606.972Zm561.795,605.013c0,-5.255 0.24,-11.9 0.735,-19.937c0.488,-8.036 0.818,-15.609 0.99,-22.718c0.173,-7.108 -0.022,-13.444 -0.592,-19.008c-0.45,-6.182 2.392,-10.044 8.535,-11.591c6.765,-1.544 11.077,0.309 12.93,5.565c0.457,0.926 0.6,1.853 0.435,2.782c0.855,7.417 0.907,18.543 0.142,33.378c-0.765,14.838 -1.185,24.264 -1.275,28.282c0.165,4.327 -1.582,7.65 -5.235,9.968c-3.652,2.319 -7.38,2.859 -11.182,1.623c-3.803,-1.236 -5.625,-4.017 -5.483,-8.344Zm1888.77,-205.833c3.315,-0.518 6.353,0.18 9.128,2.092c2.797,1.913 4.44,4.523 4.965,7.83c0.54,3.3 -0.075,6.345 -1.83,9.128c-1.035,1.395 -2.348,2.955 -3.9,4.695c-1.575,1.747 -3.923,4.177 -7.058,7.312c-3.135,3.128 -6.945,5.828 -11.475,8.085c-4.53,2.265 -9.045,3.57 -13.575,3.915c-9.037,1.043 -17.377,-1.912 -25.05,-8.872c-2.767,-2.438 -4.957,-6.435 -6.51,-12c-1.582,-5.573 -3.405,-14.79 -5.482,-27.66c-4.53,-26.445 -8.543,-41.925 -12.015,-46.455c-3.135,2.782 -12.173,14.617 -27.143,35.49c-3.81,5.572 -6.697,9.742 -8.617,12.525c-1.89,2.79 -4.688,6.615 -8.34,11.482c-3.653,4.875 -6.518,8.438 -8.61,10.703c-2.078,2.257 -4.785,5.13 -8.093,8.61c-3.292,3.48 -6.247,5.917 -8.865,7.305c-2.617,1.395 -5.385,2.61 -8.362,3.652c-2.955,1.043 -5.82,1.395 -8.61,1.043c-2.775,-0.345 -5.73,-1.215 -8.865,-2.603c-6.27,-3.48 -10.013,-11.655 -11.228,-24.532c-1.215,-12.87 -0.607,-32.183 1.83,-57.93c1.733,-29.58 2.273,-49.058 1.575,-58.455c-0.742,-9.93 -0.54,-17.768 1.125,-23.46c1.538,-5.19 5.01,-6.765 9.878,-6.765c4.867,-0 7.867,2.34 10.305,6.015c3.675,5.535 2.52,13.597 3.225,26.82c0.697,13.222 -0,32.355 -2.1,57.405c-2.07,31.665 -2.438,51.15 -1.035,58.455c5.205,-3.48 16.86,-18.263 34.965,-44.363c12.18,-17.047 21.577,-29.047 28.185,-36.007c6.607,-6.96 13.207,-10.44 19.815,-10.44c4.53,-0 8.617,1.395 12.27,4.177c3.652,2.783 6.532,6 8.61,9.653c2.092,3.652 4.192,9.045 6.27,16.185c2.092,7.125 3.562,12.952 4.44,17.475c0.877,4.53 2.002,11.31 3.382,20.355c2.43,14.962 4.35,23.835 5.745,26.617c1.74,1.395 3.315,1.92 4.695,1.568c5.925,-0.698 12.195,-5.393 18.803,-14.093c1.732,-2.782 4.26,-4.432 7.552,-4.957Zm-646.792,36.622c7.305,-7.657 16.095,-20.355 26.355,-38.1c10.252,-17.745 19.387,-36.007 27.39,-54.795c-11.813,14.61 -22.433,29.573 -31.838,44.88c-12.172,19.83 -19.477,35.835 -21.907,48.015Zm232.942,-82.912c3.833,-29.573 3.495,-48.713 -1.042,-57.413c-3.135,-1.042 -6.083,-2.437 -8.88,-4.17c-9.743,1.733 -19.478,9.563 -29.22,23.483c-9.743,13.92 -14.948,26.445 -15.645,37.575c-0.36,1.042 -0.518,2.782 -0.518,5.22c-2.1,10.785 -2.37,21.66 -0.795,32.617c1.56,10.965 5.82,17.655 12.788,20.093c3.832,1.395 8.002,0.87 12.532,-1.56c4.875,-3.48 9.81,-9.225 14.858,-17.228c5.055,-8.002 8.887,-15.48 11.497,-22.44c2.595,-6.96 4.088,-12.352 4.425,-16.177Zm-879.585,-39.218c0.698,-1.732 1.568,-3.825 2.61,-6.255c-1.395,-1.74 -2.437,-3.66 -3.127,-5.745c-1.395,-8.002 -4.178,-13.222 -8.355,-15.652c-0.698,-0.698 -1.568,-1.05 -2.61,-1.05c-1.043,-0 -2.258,0.18 -3.653,0.525c-12.87,3.825 -27.922,17.917 -45.142,42.277c-17.228,24.353 -25.665,44.355 -25.313,60.015c0,6.615 2.783,10.785 8.348,12.525c10.095,2.783 22.185,-4.44 36.27,-21.66c14.092,-17.22 27.75,-38.88 40.972,-64.98Zm468.15,0c0.69,-1.732 1.56,-3.825 2.61,-6.255c-1.395,-1.74 -2.437,-3.66 -3.135,-5.745c-1.387,-8.002 -4.177,-13.222 -8.347,-15.652c-0.698,-0.698 -1.568,-1.05 -2.61,-1.05c-1.043,-0 -2.265,0.18 -3.653,0.525c-12.877,3.825 -27.922,17.917 -45.15,42.277c-17.22,24.353 -25.657,44.355 -25.312,60.015c-0,6.615 2.79,10.785 8.355,12.525c10.087,2.783 22.177,-4.44 36.27,-21.66c14.092,-17.22 27.75,-38.88 40.972,-64.98Zm-1190.53,-43.327c0.694,-1.74 1.564,-3.825 2.608,-6.263c-1.391,-1.74 -2.434,-3.652 -3.131,-5.745c-1.391,-8.002 -4.176,-13.215 -8.351,-15.652c-0.695,-0.698 -1.565,-1.043 -2.609,-1.043c-1.044,0 -2.261,0.173 -3.652,0.518c-12.874,3.832 -27.923,17.917 -45.146,42.277c-17.223,24.353 -25.659,44.363 -25.312,60.015c-0,6.615 2.785,10.793 8.351,12.525c10.089,2.79 22.181,-4.432 36.272,-21.66c14.091,-17.22 27.747,-38.88 40.97,-64.972Zm530.849,-268.245c-17.047,21.922 -35.055,57.412 -54.022,106.47c-18.96,49.057 -36.443,102.637 -52.448,160.747c27.135,-44.19 51.143,-85.77 72.023,-124.74c20.872,-38.962 36.795,-72.975 47.752,-102.03c10.965,-29.047 14.355,-47.58 10.178,-55.582c-0.698,-0.698 -2.085,-1.215 -4.178,-1.568c-4.522,0 -10.957,5.573 -19.305,16.703Zm568.35,-8.873c-20.88,17.4 -43.837,53.235 -68.887,107.513c-25.058,54.277 -43.673,108.21 -55.845,161.79c44.535,-65.063 79.5,-124.388 104.902,-177.968c25.395,-53.58 36.533,-86.46 33.398,-98.64c-3.48,0 -8.003,2.438 -13.568,7.305Zm-945.24,195.698c5.565,-10.785 11.31,-22.268 17.228,-34.44l-8.355,-0c-3.128,11.475 -6.09,22.957 -8.873,34.44Zm86.115,-223.898c-18.787,12.533 -42.27,67.5 -70.455,164.925c2.783,0.345 7.133,0.698 13.05,1.043c21.218,-43.838 37.395,-80.978 48.533,-111.428c11.137,-30.442 14.79,-49.147 10.957,-56.1c0,0.345 -0.69,0.87 -2.085,1.56Z" style="fill:#0f0;fill-opacity:0;fill-rule:nonzero;"/><clipPath id="_clip1"><path d="M1679.87,1079.01c-5.895,6.685 -12.945,14.302 -21.158,22.857c-12.525,13.049 -25.747,23.659 -39.667,31.837c-13.92,8.177 -26.618,12.264 -38.1,12.264c-7.305,0 -14.093,-1.564 -20.355,-4.696c-7.65,-4.525 -12.435,-13.223 -14.355,-26.096c-1.905,-12.874 -1.125,-27.836 2.355,-44.883c2.655,-13.002 13.845,-53.88 15.082,-62.055c0.323,-2.13 0.51,-4.175 0.368,-6.06c-0.083,-0.974 -0.015,-1.941 -0.653,-2.568c-1.297,-1.269 -3.562,-1.308 -6.705,-1.35c-10.597,-0.147 -25.14,4.793 -38.88,10.395c-13.087,5.344 -25.44,11.505 -33.42,15.688l0.008,0.023c13.575,26.79 18.442,55.146 14.617,85.069c-6.96,54.626 -39.315,111.514 -97.072,170.663c-56.37,57.408 -114.99,97.422 -175.883,120.038c-56.715,20.875 -93.945,17.047 -111.69,-11.482c-27.832,-44.885 -3.652,-106.992 72.548,-186.321c66.802,-69.586 154.132,-132.04 261.997,-187.363c-10.095,-10.438 -22.357,-18.613 -36.795,-24.529c-14.445,-5.914 -30.532,-9.393 -48.277,-10.436c-17.745,-1.044 -33.75,-1.221 -48.015,-0.524c-14.265,0.697 -30.795,2.261 -49.583,4.697c-10.432,1.044 -24.007,2.872 -40.71,5.481c-16.695,2.608 -32.445,4.957 -47.227,7.045c-14.79,2.087 -28.448,3.655 -40.973,4.696c-11.827,1.741 -25.747,2.176 -41.752,1.306c-16.005,-0.87 -29.228,-4.088 -39.66,-9.654c-10.785,-6.264 -18.27,-14.268 -22.448,-24.009c-4.17,-9.743 -5.13,-20.267 -2.865,-31.576c2.258,-11.306 5.475,-21.831 9.653,-31.573c4.177,-9.742 9.217,-19.31 15.135,-28.705c36.877,-57.411 95.332,-111.167 175.357,-161.268c35.49,-22.269 69.765,-39.753 102.818,-52.453c33.052,-12.696 65.587,-17.654 97.597,-14.871c38.618,3.48 62.108,18.091 70.455,43.838c1.74,6.611 2.873,13.309 3.39,20.093c0.525,6.784 -0.172,14.179 -2.085,22.18c-1.912,8.004 -3.57,14.7 -4.957,20.093c-1.395,5.393 -4.178,12.7 -8.355,21.921c-4.17,9.219 -7.043,15.397 -8.61,18.528c-1.568,3.132 -4.605,9.393 -9.128,18.788c-2.437,4.522 -6.007,6.96 -10.702,7.307c-4.695,0.347 -8.438,-1.132 -11.22,-4.437c-2.783,-3.305 -3.135,-7.219 -1.043,-11.742c1.043,-2.088 2.61,-5.131 4.695,-9.133c2.085,-4.002 3.825,-7.395 5.22,-10.177c1.388,-2.785 3.128,-6.351 5.22,-10.7c2.085,-4.35 3.825,-8.175 5.213,-11.481c1.395,-3.305 2.962,-7.045 4.702,-11.221c1.74,-4.175 3.045,-8.09 3.915,-11.744c0.87,-3.652 1.65,-7.392 2.348,-11.221c0.697,-3.826 0.952,-7.566 0.78,-11.221c-0.173,-3.652 -0.608,-7.219 -1.305,-10.698c-5.22,-22.963 -25.395,-34.619 -60.54,-34.969c-34.793,-0.694 -77.243,11.483 -127.343,36.534c-44.535,22.268 -86.205,49.233 -124.995,80.896c-38.797,31.661 -69.847,66.281 -93.157,103.857c-22.275,35.839 -25.928,60.716 -10.965,74.633c4.177,3.827 9.48,6.785 15.922,8.872c6.435,2.088 14.175,3.044 23.22,2.87c9.045,-0.173 16.268,-0.435 21.66,-0.782c5.393,-0.347 13.395,-1.391 24.008,-3.131c10.612,-1.739 16.612,-2.609 18.007,-2.609c11.13,-1.393 27.135,-3.914 48.015,-7.569c20.873,-3.652 38.708,-6.436 53.498,-8.351c14.782,-1.912 31.395,-3.652 49.837,-5.217c18.443,-1.567 36.098,-1.305 52.973,0.782c16.875,2.088 32.797,5.741 47.752,10.96c21.578,7.655 39.495,20.702 53.76,39.142l0.113,0.151c10.702,-5.657 30.307,-15.477 49.357,-22.176c13.17,-4.631 26.138,-7.686 36.195,-7.548c11.993,0.164 19.425,4.033 24.128,9.032c5.017,5.338 7.372,12.556 7.29,20.989c-0.113,10.899 -10.178,44.271 -11.4,49.394c-4.695,19.66 -7.215,34.881 -7.568,45.667c-0.345,10.785 0.698,17.745 3.135,20.877c11.483,6.263 28.703,-0.435 51.668,-20.093c22.965,-19.66 44.017,-42.711 63.15,-69.152c0.922,-1.236 1.972,-2.248 3.135,-3.038c6.592,-29.751 14.767,-64.059 24.525,-102.909c0.697,-3.132 2.52,-5.567 5.482,-7.308c2.955,-1.738 6,-2.173 9.135,-1.303c3.128,0.868 5.565,2.697 7.305,5.479c1.74,2.784 2.258,5.916 1.56,9.395c-12.172,49.06 -22.612,94.638 -31.312,136.738c15.307,-29.923 32.445,-53.148 51.412,-69.674c18.96,-16.528 39.053,-23.398 60.278,-20.616c3.48,0.347 6.262,1.826 8.347,4.437c2.085,2.609 2.963,5.567 2.61,8.873c-0.345,3.304 -1.912,6.001 -4.695,8.088c-2.782,2.088 -5.745,2.958 -8.872,2.609c-16.005,-2.085 -32.1,4.96 -48.278,21.139c-16.177,16.179 -30.27,36.881 -42.27,62.105c-12.007,25.226 -22.357,52.973 -31.057,83.243c-1.388,5.569 -4.868,8.525 -10.44,8.874c-0.345,0.347 -0.69,0.521 -1.043,0.521c-5.22,0 -8.872,-2.261 -10.957,-6.784c-4.733,-9.661 -2.205,-40.163 7.59,-91.488Zm-205.913,-13.415c-2.437,-11.133 -6.09,-21.399 -10.965,-30.791c-140.212,70.282 -240.42,148.568 -300.615,234.855c-4.17,5.916 -8.175,12.003 -12,18.266c-3.825,6.264 -7.74,14.006 -11.745,23.225c-3.997,9.221 -6.96,17.832 -8.872,25.835c-1.913,8.002 -2.175,16.006 -0.78,24.007c1.387,8.004 4.867,14.614 10.432,19.834c12.18,11.829 36.885,11.133 74.115,-2.088c62.978,-22.269 122.82,-63.674 179.535,-124.214c65.063,-69.934 92.025,-132.912 80.895,-188.929Zm540.765,-2.128c4.92,-23.829 10.56,-48.692 16.92,-74.591c0.345,-1.044 0.698,-2.262 1.043,-3.654c10.44,-41.403 21.307,-79.677 32.625,-114.817c11.295,-35.142 24.622,-69.153 39.93,-102.034c15.307,-32.878 30.615,-56.799 45.922,-71.761c14.948,-14.613 30.098,-21.745 45.413,-21.398c9.375,0 16.005,3.827 19.815,11.483c4.867,9.742 2.347,27.312 -7.553,52.712c-9.922,25.398 -24.982,54.886 -45.157,88.461c-20.183,33.577 -38.715,63.412 -55.575,89.506c-16.89,26.097 -34.545,52.018 -52.988,77.766c-4.162,17.049 -8.167,34.271 -11.992,51.667c19.477,-22.615 43.83,-39.49 73.072,-50.624c5.903,-2.437 11.993,-4.525 18.263,-6.263c3.472,-0.696 6.607,-0.261 9.397,1.305c2.775,1.565 4.695,3.915 5.73,7.046c0.36,2.435 0.36,4.608 0,6.523c-0.337,1.914 -1.305,3.654 -2.865,5.219c-1.575,1.564 -3.405,2.696 -5.475,3.393c-4.537,1.044 -8.887,2.435 -13.057,4.175c-40.358,14.612 -69.938,43.491 -88.718,86.635c5.91,9.047 12.87,16.093 20.88,21.136c8.003,5.046 17.04,8.09 27.143,9.134c23.31,2.784 48.27,-2.956 74.872,-17.223c26.453,-14.172 47.145,-28.859 62.093,-44.063c0.202,-2.638 0.472,-5.346 0.81,-8.126c0.337,-2.437 0.525,-4.002 0.525,-4.699c1.035,-10.089 4.687,-21.483 10.95,-34.183c6.27,-12.701 14.977,-24.095 26.092,-34.184c11.138,-10.092 22.793,-15.135 34.965,-15.135c8.363,-0 15.308,2.782 20.88,8.349c29.265,11.128 52.688,11.072 70.32,-0.168c4.44,-18.717 9.353,-38.848 14.768,-60.372c0.675,-3.132 2.497,-5.567 5.475,-7.308c2.955,-1.738 6,-2.173 9.135,-1.303c3.135,0.868 5.565,2.697 7.305,5.479c1.732,2.784 2.25,5.916 1.552,9.395c-12.172,49.06 -22.612,94.638 -31.312,136.738c15.307,-29.923 32.437,-53.148 51.427,-69.674c18.96,-16.528 39.045,-23.398 60.263,-20.616c3.472,0.347 6.27,1.826 8.362,4.437c2.078,2.609 2.955,5.567 2.595,8.873c-0.337,3.304 -1.92,6.001 -4.687,8.088c-2.798,2.088 -5.753,2.958 -8.888,2.609c-15.982,-2.085 -32.085,4.96 -48.27,21.139c-16.162,16.179 -30.255,36.881 -42.27,62.105c-12,25.226 -22.342,52.973 -31.05,83.243c-1.395,5.569 -4.867,8.525 -10.44,8.874c-0.36,0.347 -0.697,0.521 -1.035,0.521c-5.227,0 -8.88,-2.261 -10.98,-6.784c-6.45,-13.169 0.608,-65.051 21.15,-155.645c-14.97,4.104 -31.927,3.971 -50.887,-0.403c1.74,12.177 1.215,29.226 -1.575,51.145c-1.38,10.092 -6,23.139 -13.823,39.144c-7.822,16.005 -17.475,27.486 -28.972,34.446c-6.608,4.175 -13.575,6.263 -20.88,6.263c-4.17,-0 -8.16,-0.697 -11.993,-2.088c-15.712,-5.389 -25.275,-18.167 -28.68,-38.335c-15.397,12.766 -33.84,24.587 -55.35,35.462c-29.917,15.135 -58.275,21.313 -85.065,18.528c-21.915,-2.434 -40.357,-11.655 -55.32,-27.661c-4.53,15.658 -7.312,30.619 -8.355,44.884l0,2.088c-1.042,8.004 -4.695,12.177 -10.957,12.527l-1.568,-0c-2.782,-0 -5.302,-0.871 -7.567,-2.612c-2.258,-1.737 -3.743,-4.175 -4.433,-7.304c-0.352,-2.437 -0.18,-6.787 0.518,-13.05c0.922,-11.96 3.87,-31.762 8.842,-59.401c-5.482,5.156 -10.965,9.821 -16.44,13.996c-7.305,5.567 -15.66,10.439 -25.05,14.615c-9.397,4.175 -18.27,6.263 -26.617,6.263c-8.355,-0 -16.005,-2.088 -22.965,-6.263c-10.44,-6.264 -15.833,-17.573 -16.178,-33.925c-23.317,28.531 -45.405,40.012 -66.285,34.445c-17.047,-4.87 -25.747,-16.873 -26.092,-36.01c-0.353,-13.57 4.432,-29.749 14.347,-48.537c9.923,-18.789 21.84,-35.489 35.753,-50.103c13.92,-14.614 26.445,-23.486 37.575,-26.617c9.742,-3.132 18.615,-2.261 26.617,2.611c4.53,2.781 8.528,6.957 12.008,12.524l-0,-1.044c1.74,-2.783 4.087,-4.784 7.042,-6.002c2.955,-1.218 5.918,-1.13 8.873,0.261c2.962,1.392 5.13,3.653 6.525,6.785c1.395,3.131 1.395,6.089 -0,8.874c-4.868,12.177 -10.26,24.527 -16.178,37.054c-7.657,19.831 -12.615,36.88 -14.872,51.147c-2.265,14.265 -1.133,23.484 3.39,27.659c4.867,3.481 10.785,4.176 17.745,2.088c6.96,-2.088 13.74,-5.132 20.355,-9.134c6.607,-3.999 13.477,-9.219 20.617,-15.655c7.133,-6.437 13.133,-12.353 18,-17.746c3.968,-4.39 7.47,-8.491 10.515,-12.305Zm687.578,54.84c3.465,-0 6.33,1.217 8.61,3.655c2.25,2.435 3.382,5.304 3.382,8.61c0,3.305 -1.222,6.175 -3.652,8.613c-11.835,11.133 -23.835,16.699 -36.008,16.699c-5.932,0 -11.317,-1.738 -16.185,-5.219c-4.875,-3.132 -8.797,-8.611 -11.752,-16.439c-2.948,-7.83 -4.868,-15.049 -5.723,-21.659c-0.877,-6.61 -2.01,-16.353 -3.405,-29.227c-2.077,-22.965 -4.35,-36.533 -6.787,-40.708c-8.34,2.435 -29.4,24.181 -63.15,65.239c-12.173,14.958 -21.218,25.571 -27.12,31.834c-5.933,6.263 -10.98,10.351 -15.15,12.265c-4.17,1.914 -8.168,1.479 -12,-1.305c-3.833,-2.783 -5.565,-6.437 -5.228,-10.96c2.1,-21.571 14.453,-77.416 37.065,-167.531c1.035,-3.131 2.955,-5.567 5.73,-7.307c2.79,-1.738 5.835,-2.262 9.15,-1.565c3.293,0.697 5.82,2.523 7.553,5.481c1.74,2.956 2.28,6.002 1.582,9.134c-11.145,42.447 -21.06,84.546 -29.767,126.299c2.437,-3.132 5.572,-7.131 9.405,-12.004c22.95,-27.835 40.695,-47.492 53.227,-58.975c12.54,-11.482 23.655,-16.526 33.413,-15.135c4.875,0.697 8.955,2.609 12.27,5.74c3.292,3.132 5.812,8.177 7.552,15.135c1.733,6.96 3.045,13.05 3.923,18.267c0.855,5.219 1.822,13.223 2.865,24.009c2.79,30.27 6.082,46.796 9.915,49.58c2.1,1.392 5.392,0.957 9.922,-1.305c4.508,-2.262 8.52,-4.958 11.993,-8.089c2.1,-2.088 4.875,-3.132 8.37,-3.132Zm-397.17,-55.321c3.81,-29.575 3.472,-48.712 -1.058,-57.41c-3.135,-1.044 -6.09,-2.435 -8.865,-4.176c-9.735,1.741 -19.5,9.568 -29.242,23.486c-9.735,13.918 -14.948,26.444 -15.645,37.577c-0.36,1.044 -0.518,2.784 -0.518,5.22c-2.1,10.785 -2.347,21.66 -0.787,32.619c1.552,10.959 5.835,17.658 12.78,20.093c3.832,1.393 8.002,0.87 12.54,-1.565c4.867,-3.479 9.825,-9.221 14.857,-17.223c5.048,-8.004 8.88,-15.484 11.498,-22.442c2.587,-6.96 4.08,-12.352 4.44,-16.179Zm-388.598,-35.489c0.69,-1.741 1.56,-3.828 2.61,-6.263c-1.395,-1.741 -2.437,-3.653 -3.135,-5.74c-1.387,-8.004 -4.177,-13.223 -8.347,-15.659c-0.698,-0.696 -1.568,-1.044 -2.61,-1.044c-1.043,0 -2.265,0.174 -3.66,0.524c-12.87,3.826 -27.915,17.917 -45.143,42.273c-17.22,24.356 -25.657,44.361 -25.312,60.019c-0,6.611 2.782,10.786 8.355,12.525c10.087,2.784 22.177,-4.435 36.27,-21.658c14.092,-17.223 27.75,-38.882 40.972,-64.977Zm-1040.05,-38.786c4.567,-3.09 8.722,-2.55 12.465,1.624c3.75,4.171 3.615,8.885 -0.405,14.141c-9.713,12.979 -18.45,28.82 -26.228,47.519c-7.785,18.7 -12,35.158 -12.652,49.378c-0.45,4.326 -2.58,7.65 -6.39,9.967c-3.81,2.318 -7.455,2.859 -10.95,1.624c-3.488,-1.238 -5.168,-4.02 -5.018,-8.347c1.41,-23.799 9.99,-50.534 25.733,-80.206c-10.29,4.017 -20.985,6.799 -32.07,8.343c-11.093,1.548 -21.84,2.012 -32.235,1.392c-10.402,-0.618 -20.067,-2.78 -28.993,-6.491c-8.928,-3.709 -15.911,-8.809 -20.948,-15.3c-7.329,-9.271 -10.92,-18.699 -10.776,-28.279c0.144,-9.582 2.766,-18.314 7.863,-26.196c5.1,-7.882 12.753,-16.226 22.962,-25.035c10.206,-8.808 19.91,-16.073 29.112,-21.79c9.195,-5.718 19.8,-11.977 31.822,-18.776c-13.822,-4.018 -25.125,-10.897 -33.918,-20.632c-8.793,-9.735 -13.575,-21.173 -14.35,-34.308c-0.774,-13.137 4.137,-26.967 14.736,-41.495c11.632,-15.144 26.715,-24.417 45.24,-27.817c18.525,-3.401 36.022,-1.854 52.5,4.637c16.47,6.489 28.897,15.762 37.282,27.817c2.183,3.4 2.1,6.953 -0.255,10.662c-2.355,3.709 -5.377,5.95 -9.067,6.723c-3.69,0.774 -6.968,-0.386 -9.818,-3.476c-8.077,-12.056 -21.375,-20.323 -39.907,-24.805c-18.525,-4.482 -35.123,-1.932 -49.793,7.65c-12.817,9.582 -19.455,19.163 -19.905,28.745c-0.457,9.582 2.348,18.236 8.4,25.962c6.06,7.729 14.46,13.523 25.215,17.387c10.755,3.862 21.09,4.868 30.998,3.012c5.16,-1.235 8.565,0.93 10.215,6.492c1.642,5.564 -0.098,9.737 -5.22,12.516c-2.438,1.548 -8.16,4.638 -17.168,9.274c-9.007,4.637 -17.032,8.964 -24.082,12.982c-7.043,4.018 -15.413,8.964 -25.095,14.835c-9.694,5.873 -17.594,11.67 -23.701,17.387c-6.108,5.717 -11.422,11.744 -15.938,18.08c-4.518,6.337 -6.408,12.672 -5.67,19.01c0.737,6.336 4.17,12.286 10.299,17.85c12.363,10.508 30.382,14.371 54.052,11.588c23.67,-2.779 42.855,-9.889 57.54,-21.326c1.095,-0.926 2.468,-1.7 4.118,-2.318Zm705.495,-44.128l7.312,-1.826c6.518,-1.631 10.485,-8.246 8.85,-14.763c-1.627,-6.519 -8.242,-10.487 -14.76,-8.856l-7.305,1.826c-6.517,1.63 -10.485,8.245 -8.857,14.763c1.627,6.517 8.242,10.486 14.76,8.856Zm586.41,-230.75c-31.32,30.967 -62.813,101.249 -94.47,210.849c22.957,-34.446 43.65,-67.065 62.092,-97.856c18.443,-30.793 33.233,-57.846 44.37,-81.158c11.138,-23.31 16.013,-38.619 14.61,-45.926c-8.34,0.348 -17.22,5.043 -26.602,14.091Zm-1331.36,-266.619c1.005,-9.87 2.303,-19.222 3.893,-28.05c-0,-0.352 0.18,-0.525 0.525,-0.525c7.305,-35.49 16.702,-74.977 28.177,-118.47c-93.591,-4.522 -147.173,-0.352 -160.741,12.525c-2.088,2.085 -4.872,3.128 -8.351,3.128c-3.479,-0 -6.437,-1.215 -8.872,-3.653c-2.088,-2.43 -3.132,-5.302 -3.132,-8.61c0,-3.307 1.218,-6.172 3.653,-8.61c18.79,-17.745 80.2,-24.007 184.231,-18.787c29.925,-106.47 57.06,-167.88 81.42,-184.238c7.305,-4.522 14.61,-6 21.915,-4.432c7.312,1.567 12.532,6 15.66,13.312c1.042,1.733 1.74,4.26 2.085,7.568c0.352,3.3 -0.083,9.562 -1.298,18.787c-1.222,9.218 -3.487,19.92 -6.787,32.093c-3.308,12.18 -9.135,28.882 -17.483,50.107c-8.355,21.218 -18.795,44.88 -31.32,70.98c11.138,0.69 22.793,1.56 34.973,2.603c14.962,1.395 28.702,1.92 41.227,1.567c12.525,-0.345 23.835,-1.305 33.923,-2.872c10.095,-1.56 18.877,-3.48 26.355,-5.738c7.485,-2.265 13.83,-4.612 19.05,-7.042c5.22,-2.438 9.225,-4.703 12.007,-6.788c2.783,-2.085 4.523,-4.005 5.22,-5.745c1.388,-2.782 3.653,-4.785 6.788,-6c3.127,-1.215 6.255,-1.215 9.39,0c3.127,1.215 5.302,3.308 6.525,6.263c1.215,2.962 1.125,6 -0.263,9.135c-5.22,13.222 -22.44,24.442 -51.667,33.66c-29.228,9.225 -66.285,11.917 -111.165,8.092c-14.963,-1.387 -29.573,-2.61 -43.838,-3.652c-18.097,36.877 -39.495,77.415 -64.2,121.605c-5.22,28.875 -6.78,58.275 -4.695,88.2c2.085,29.925 7.133,48.187 15.135,54.802c3.135,2.783 6.615,3.825 10.44,3.128c7.305,-0.698 15.135,-5.13 23.483,-13.305c8.355,-8.183 14.962,-15.75 19.837,-22.71c1.013,-1.628 2.303,-2.895 3.863,-3.81c0.45,-6.54 1.792,-13.53 4.035,-20.963c3.825,-12.697 9.135,-24.877 15.915,-36.532c6.787,-11.655 12.18,-20.528 16.185,-26.618c3.997,-6.09 7.74,-11.22 11.22,-15.397c13.912,-17.745 26.79,-24.525 38.617,-20.348c10.44,3.473 15.833,14.085 16.178,31.83c-0,3.48 -1.125,6.435 -3.39,8.873c-2.258,2.437 -5.13,3.652 -8.61,3.652c-2.438,0 -4.523,-0.517 -6.263,-1.56c-1.74,-1.042 -3.217,-2.437 -4.44,-4.177c-1.215,-1.74 -1.822,-3.825 -1.822,-6.263c-0,-2.782 -0.18,-5.22 -0.525,-7.305c-3.825,2.783 -7.478,6.263 -10.958,10.433c-9.742,12.877 -19.485,28.792 -29.227,47.76c-9.743,18.96 -13.92,34.53 -12.525,46.71c0.697,6.262 3.307,10.957 7.83,14.092c5.565,4.523 13.395,5.393 23.482,2.603c10.095,-2.783 20.88,-7.478 32.355,-14.085c11.483,-6.615 23.4,-14.7 35.753,-24.27c12.352,-9.57 23.49,-18.878 33.405,-27.923c9.915,-9.045 18.18,-17.22 24.787,-24.532c0.885,-0.885 1.823,-1.62 2.82,-2.198c5.61,-22.867 11.978,-46.492 19.103,-70.867c11.482,-40.71 23.482,-78.375 36.007,-112.995c12.525,-34.613 24.705,-64.538 36.533,-89.76c11.835,-25.23 22.965,-44.453 33.405,-57.675c13.222,-17.048 26.265,-25.575 39.142,-25.575c11.828,-0 20.183,4.702 25.05,14.092c5.573,10.785 4.44,29.318 -3.39,55.583c-7.83,26.272 -18.705,53.587 -32.617,81.937c-13.92,28.358 -30.878,60.023 -50.888,94.988c-20.002,34.972 -36.187,62.37 -48.54,82.2c-12.352,19.83 -24.09,38.445 -35.227,55.845c-6.263,25.747 -11.13,48.622 -14.61,68.632c-3.48,20.003 -5.22,35.228 -5.22,45.668c7.65,-10.793 22.44,-37.058 44.362,-78.81c25.748,-49.755 44.97,-83.16 57.668,-100.208c12.705,-17.047 24.787,-23.31 36.27,-18.787c4.53,1.395 8.355,4.177 11.482,8.355c3.135,4.17 5.573,8.43 7.305,12.78c1.748,4.35 3.398,10.702 4.965,19.05c1.56,8.355 2.61,15.225 3.128,20.617c0.525,5.393 1.305,13.485 2.347,24.27c3.48,36.188 7.485,56.535 12.008,61.065c4.867,4.868 10.44,7.133 16.702,6.78c5.565,-0.345 11.22,-2.61 16.958,-6.78c5.745,-4.177 10.177,-8.355 13.312,-12.532c0.338,-0.45 0.698,-0.878 1.073,-1.275c-0.323,-2.243 -0.51,-4.598 -0.555,-7.073c-0.345,-13.567 4.44,-29.745 14.355,-48.54c9.915,-18.787 21.832,-35.49 35.752,-50.1c13.913,-14.61 26.438,-23.482 37.575,-26.617c9.743,-3.128 18.615,-2.258 26.618,2.61c4.522,2.782 8.52,6.96 12,12.525l-0,-1.043c1.74,-2.782 4.087,-4.785 7.05,-6c2.955,-1.222 5.917,-1.132 8.872,0.263c2.955,1.387 5.13,3.652 6.525,6.78c1.388,3.135 1.388,6.09 0,8.872c-4.875,12.18 -10.267,24.533 -16.185,37.058c-7.65,19.83 -12.607,36.877 -14.872,51.142c-2.265,14.265 -1.133,23.49 3.39,27.66c4.875,3.48 10.792,4.178 17.752,2.093c6.953,-2.093 13.74,-5.13 20.348,-9.135c6.615,-4.005 13.485,-9.218 20.617,-15.66c7.133,-6.435 13.133,-12.345 18.008,-17.745c4.027,-4.455 7.582,-8.618 10.657,-12.488c7.808,-15.232 18.87,-30.21 33.18,-44.917c18.443,-18.96 34.62,-28.44 48.54,-28.44c3.48,-0 6.435,1.215 8.873,3.652c2.43,2.43 3.652,5.303 3.652,8.61c0,3.3 -1.222,6.173 -3.652,8.61c-2.438,2.438 -5.393,3.653 -8.873,3.653c-6.615,-0 -17.4,7.567 -32.362,22.702c-10.905,11.033 -19.59,22.568 -26.055,34.613c-0.398,1.485 -1.103,2.91 -2.123,4.267l-0.172,0.218c-1.47,3.03 -2.805,6.09 -4.005,9.18c-6.263,16.35 -5.745,28.185 1.567,35.49c14.963,8.347 49.23,-24.36 102.81,-98.123c7.305,-60.187 26.1,-125.43 56.37,-195.712c30.27,-70.283 58.628,-116.558 85.065,-138.825c14.618,-12.18 27.84,-16.005 39.668,-11.483c6.262,2.783 10.44,7.658 12.525,14.618c6.262,21.217 -7.395,64.89 -40.973,130.995c-33.57,66.105 -74.017,132.217 -121.335,198.322c-3.832,5.22 -6.615,9.045 -8.355,11.483c-2.782,26.445 -2.257,48.54 1.568,66.285c4.867,21.57 14.437,34.267 28.702,38.092c4.523,1.74 9.308,2.355 14.355,1.83c5.048,-0.525 9.653,-1.305 13.83,-2.347c4.178,-1.043 8.52,-2.873 13.043,-5.483c4.53,-2.61 8.445,-5.047 11.745,-7.305c3.307,-2.265 6.697,-5.047 10.177,-8.355c3.48,-3.3 6.263,-6.082 8.355,-8.347c2.085,-2.265 4.17,-4.785 6.263,-7.568c2.085,-2.782 3.48,-4.612 4.17,-5.482c0.697,-0.863 1.222,-1.478 1.567,-1.823l0,-0.525c0.803,-1.065 1.695,-1.972 2.685,-2.707c1.935,-10.538 6.345,-22.335 13.23,-35.393c9.923,-18.787 21.84,-35.49 35.753,-50.1c13.92,-14.61 26.445,-23.482 37.582,-26.617c9.735,-3.128 18.608,-2.258 26.618,2.61c4.522,2.782 8.52,6.96 12,12.525l-0,-1.043c1.74,-2.782 4.087,-4.785 7.042,-6c2.963,-1.222 5.918,-1.132 8.873,0.263c2.962,1.387 5.13,3.652 6.525,6.78c1.395,3.135 1.395,6.09 -0,8.872c-4.868,12.18 -10.26,24.533 -16.178,37.058c-7.657,19.83 -12.615,36.877 -14.872,51.142c-2.265,14.265 -1.133,23.49 3.39,27.66c4.867,3.48 10.785,4.178 17.745,2.093c6.96,-2.093 13.74,-5.13 20.355,-9.135c6.607,-4.005 13.477,-9.218 20.617,-15.66c7.073,-6.375 13.028,-12.248 17.88,-17.603c1.988,-9.007 3.938,-17.662 5.865,-25.972l25.05,-109.08c1.043,-3.128 2.955,-5.565 5.738,-7.305c2.79,-1.74 5.827,-2.265 9.142,-1.568c3.293,0.698 5.82,2.52 7.553,5.483c1.74,2.955 2.28,6 1.582,9.135c-0.697,1.387 -8.182,33.57 -22.447,96.547c5.22,-8.347 10.95,-16.522 17.212,-24.525c6.27,-8.002 14.003,-17.227 23.228,-27.667c9.217,-10.433 19.23,-19.395 30.007,-26.873c10.8,-7.485 21.24,-12.442 31.313,-14.872c14.97,-3.48 28.545,-1.043 40.717,7.305c7.643,5.22 12,13.912 13.058,26.092c0.045,0.63 0.09,1.268 0.112,1.928c13.485,-6.18 32.603,-10.913 58.485,-8.903c37.358,2.91 56.678,4.358 71.423,4.958c12.15,0.495 22.342,8.767 28.68,10.545c29.827,8.355 47.797,8.767 65.902,-5.85c0.36,-0.278 0.743,-0.533 1.103,-0.765c4.485,-18.923 9.472,-39.3 14.947,-61.103c0.675,-3.135 2.505,-5.565 5.475,-7.305c2.955,-1.74 6,-2.175 9.135,-1.305c3.135,0.87 5.565,2.693 7.305,5.475c1.733,2.79 2.258,5.918 1.553,9.398c-12.173,49.057 -22.613,94.642 -31.313,136.74c15.308,-29.925 32.445,-53.145 51.405,-69.675c18.983,-16.53 39.068,-23.4 60.285,-20.618c3.473,0.353 6.27,1.83 8.34,4.44c2.1,2.61 2.978,5.565 2.618,8.873c-0.338,3.3 -1.913,6 -4.688,8.085c-2.797,2.092 -5.752,2.962 -8.887,2.61c-16.005,-2.085 -32.078,4.957 -48.27,21.135c-16.163,16.185 -30.255,36.885 -42.27,62.107c-11.993,25.23 -22.343,52.973 -31.05,83.243c-1.395,5.572 -4.868,8.527 -10.433,8.872c-0.36,0.353 -0.705,0.525 -1.065,0.525c-5.205,0 -8.857,-2.257 -10.957,-6.78c-6.353,-13.012 0.435,-63.795 20.407,-152.362c-16.252,5.767 -35.017,6.202 -56.272,1.29c1.732,12.18 1.215,29.227 -1.583,51.15c-1.372,10.087 -5.992,23.137 -13.815,39.142c-7.83,16.005 -17.497,27.488 -28.972,34.44c-6.608,4.178 -13.575,6.27 -20.88,6.27c-4.17,0 -8.183,-0.697 -11.993,-2.092c-24.375,-8.348 -33.93,-34.448 -28.702,-78.285c0.337,-2.438 0.517,-4.005 0.517,-4.695c1.035,-10.095 4.688,-21.488 10.958,-34.185c4.935,-10.02 11.385,-19.23 19.365,-27.63c-8.925,-0.705 -19.14,-1.515 -30.165,-2.37c-34.673,-2.7 -53.34,9.667 -60.285,15.727l-0.068,0.375c-3.495,15.308 -9.765,33.053 -18.802,53.228c-9.045,20.182 -16.103,34.8 -21.128,43.845c-5.047,9.045 -8.79,15.48 -11.227,19.312c-12.173,19.83 -22.703,33.315 -31.568,40.448c-8.88,7.132 -16.792,8.61 -23.76,4.432c-10.44,-5.565 -13.912,-16.875 -10.44,-33.922c3.833,-18.443 14.7,-41.145 32.625,-68.108c17.925,-26.97 38.528,-50.887 61.845,-71.76c0.698,-3.135 1.215,-6.09 1.575,-8.872c1.035,-10.095 0.158,-16.005 -2.617,-17.745c-5.903,-4.523 -13.05,-5.745 -21.39,-3.653c-15.308,3.473 -32.198,15.57 -50.64,36.27c-18.443,20.7 -32.693,39.923 -42.795,57.668c-9.39,16.702 -24,69.15 -43.83,157.357c-19.838,88.199 -31.838,150.741 -36.015,187.621c-0.345,2.785 -1.65,5.22 -3.915,7.307c-2.258,2.088 -4.958,3.132 -8.085,3.132c-1.74,0 -3.308,-0.261 -4.703,-0.782c-1.387,-0.523 -2.602,-1.218 -3.652,-2.088c-1.043,-0.87 -1.913,-1.914 -2.61,-3.131c-0.69,-1.218 -1.043,-2.523 -1.043,-3.914c-2.085,-12.874 4.785,-62.628 20.618,-149.265c9.967,-54.547 19.35,-102.952 28.14,-145.215c-1.815,1.485 -3.623,2.918 -5.438,4.305c-7.305,5.565 -15.66,10.433 -25.05,14.61c-9.397,4.17 -18.27,6.263 -26.617,6.263c-8.355,-0 -16.005,-2.093 -22.965,-6.263c-10.44,-6.262 -15.833,-17.572 -16.178,-33.922c-23.317,28.53 -45.405,40.012 -66.285,34.447c-9.855,-2.82 -16.92,-8.017 -21.195,-15.6c-1.185,1.275 -2.467,2.648 -3.855,4.11c-6.262,6.615 -12.697,12.36 -19.312,17.228c-6.608,4.867 -14.783,9.307 -24.525,13.305c-9.743,4.005 -19.485,6.007 -29.228,6.007c-6.615,0 -13.222,-0.87 -19.83,-2.61c-23.662,-6.615 -38.797,-25.402 -45.412,-56.37c-2.43,-10.785 -3.653,-22.957 -3.653,-36.532c-26.092,33.405 -48.27,56.37 -66.54,68.895c-18.262,12.525 -34.357,13.912 -48.277,4.17c-0.345,-0 -0.69,-0.345 -1.043,-1.043c-8.595,-7.5 -13.492,-16.822 -14.685,-27.975c-4.5,4.088 -9,7.845 -13.5,11.28c-7.305,5.565 -15.652,10.433 -25.05,14.61c-9.39,4.17 -18.262,6.263 -26.617,6.263c-8.348,-0 -16.005,-2.093 -22.958,-6.263c-10.44,-6.262 -15.832,-17.572 -16.185,-33.922c-23.31,28.53 -45.405,40.012 -66.277,34.447c-5.108,-1.462 -9.465,-3.562 -13.073,-6.292c-4.05,4.155 -8.91,8.167 -14.595,12.03c-8.692,5.917 -17.917,9.217 -27.66,9.915c-13.215,1.042 -25.05,-3.48 -35.49,-13.568c-4.17,-4.177 -7.56,-10.612 -10.177,-19.312c-2.603,-8.7 -4.433,-16.703 -5.475,-24.008c-1.043,-7.305 -2.085,-18.262 -3.135,-32.88c-3.473,-37.92 -7.65,-59.145 -12.525,-63.667c-9.39,5.565 -31.14,41.227 -65.235,106.987c-20.528,39.66 -35.4,66.195 -44.625,79.59c-9.218,13.395 -17.828,20.093 -25.83,20.093l-2.093,-0c-8.002,-1.043 -13.215,-6.263 -15.652,-15.66c-4.403,-16.028 0.135,-54.473 13.62,-115.358c-3.473,3.128 -7.403,6.608 -11.798,10.455c-12.697,11.138 -25.132,21.143 -37.312,30.015c-12.18,8.873 -25.838,16.875 -40.973,24.008c-15.135,7.132 -28.44,10.695 -39.922,10.695c-10.785,-0 -20.01,-2.955 -27.66,-8.873c-4.628,-3.6 -8.325,-7.867 -11.093,-12.817c-2.445,2.797 -5.467,6.105 -9.075,9.93c-5.737,6.09 -12.18,11.31 -19.312,15.66c-7.133,4.35 -14.355,7.05 -21.66,8.092l-4.695,0c-9.398,0 -17.745,-3.135 -25.05,-9.397c-9.045,-8.003 -15.57,-22.875 -19.575,-44.625c-3.54,-19.253 -5.175,-38.37 -4.898,-57.353c-2.422,2.528 -5.227,5.378 -8.407,8.558c-7.305,7.305 -14.618,13.747 -21.923,19.312c-7.305,5.565 -15.652,10.44 -25.051,14.61c-9.392,4.178 -18.266,6.263 -26.615,6.263c-8.351,-0 -16.005,-2.085 -22.965,-6.263c-10.438,-6.262 -15.832,-17.572 -16.179,-33.922c-23.312,28.53 -45.405,40.012 -66.282,34.447c-17.047,-4.875 -25.745,-16.875 -26.095,-36.015c-0.347,-13.567 4.437,-29.745 14.353,-48.532c9.916,-18.788 21.833,-35.49 35.751,-50.108c13.917,-14.61 26.441,-23.482 37.577,-26.617c9.742,-3.128 18.614,-2.258 26.617,2.61c4.523,2.782 8.523,6.96 12.004,12.525l-0,-1.043c1.738,-2.782 4.087,-4.785 7.045,-6c2.958,-1.215 5.914,-1.132 8.872,0.263c2.958,1.387 5.132,3.652 6.525,6.78c1.391,3.135 1.391,6.09 0,8.872c-4.872,12.18 -10.265,24.533 -16.179,37.058c-7.657,19.83 -12.614,36.885 -14.875,51.142c-2.262,14.273 -1.13,23.49 3.393,27.668c4.869,3.48 10.785,4.17 17.743,2.085c6.96,-2.085 13.744,-5.13 20.354,-9.135c6.611,-3.998 13.485,-9.218 20.617,-15.653c7.133,-6.442 13.133,-12.352 18.008,-17.745c4.867,-5.392 9.045,-10.35 12.525,-14.872c1.507,-1.77 3.345,-3.03 5.497,-3.788Zm-195.472,309.618c6.96,2.088 9.394,6.787 7.307,14.091c-2.088,6.611 -6.437,9.743 -13.048,9.396l-3.131,-1.044c-161.791,-53.583 -278.348,-140.743 -349.676,-261.471c-1.392,-2.437 -1.739,-4.875 -1.044,-7.312c0.696,-2.43 2.002,-4.523 3.916,-6.263c1.912,-1.732 4.088,-2.782 6.523,-3.127c39.317,-8.7 78.632,-23.663 117.95,-44.888c39.317,-21.217 75.851,-46.095 109.6,-74.632c11.482,-9.743 22.268,-19.83 32.357,-30.27c10.09,-10.433 19.834,-21.833 29.227,-34.185c9.394,-12.345 17.396,-25.223 24.009,-38.618c6.61,-13.395 11.915,-27.052 15.917,-40.972c4.001,-13.913 5.914,-28.44 5.74,-43.575c-0.173,-15.135 -2.696,-30.015 -7.566,-44.625c-4.873,-16.35 -12.874,-30.443 -24.009,-42.278c-11.133,-11.827 -24.095,-20.962 -38.881,-27.397c-14.788,-6.435 -30.01,-11.22 -45.666,-14.348c-15.658,-3.135 -32.011,-4.702 -49.06,-4.702c-38.621,-0 -78.371,5.655 -119.253,16.965c-40.883,11.31 -79.418,27.225 -115.604,47.752c-36.184,20.528 -69.064,46.013 -98.638,76.463c-29.575,30.442 -51.844,63.585 -66.803,99.42c-2.088,4.522 -5.395,6.96 -9.918,7.305c-4.522,0.352 -8.348,-1.133 -11.48,-4.433c-3.132,-3.307 -3.655,-7.222 -1.567,-11.745c13.221,-30.967 31.487,-59.932 54.8,-86.895c23.312,-26.97 48.624,-50.107 75.936,-69.412c27.315,-19.313 57.149,-36.45 89.507,-51.413c14.962,-6.96 31.314,-13.395 49.06,-19.305c17.743,-5.917 36.795,-11.22 57.147,-15.922c20.354,-4.695 40.881,-8.003 61.585,-9.915c20.702,-1.913 41.23,-2.438 61.584,-1.568c20.354,0.87 39.491,4.178 57.411,9.923c17.917,5.737 34.096,13.567 48.536,23.482c14.439,9.915 26.53,23.31 36.272,40.185c9.742,16.875 16.006,36.45 18.787,58.718c3.482,27.832 1.221,55.582 -6.783,83.242c-8.002,27.66 -20.355,53.063 -37.054,76.193c-16.703,23.145 -36.448,45.15 -59.237,66.022c-22.79,20.88 -47.407,39.405 -73.849,55.583c-26.444,16.177 -53.147,30.187 -80.112,42.015c-26.965,11.827 -53.147,21.052 -78.548,27.66c67.848,107.167 177.1,185.8 327.756,235.9Zm-344.978,-609.58c1.044,-4.875 3.74,-8.093 8.09,-9.66c4.349,-1.56 8.35,-1.125 12.003,1.305c3.654,2.437 5.133,6.09 4.437,10.965c-22.963,135 -57.235,337.32 -102.816,606.97c-1.044,4.872 -3.74,8.09 -8.089,9.657c-4.349,1.565 -8.351,1.129 -12.004,-1.305c-3.652,-2.436 -5.131,-6.09 -4.437,-10.96c22.966,-134.997 57.237,-337.325 102.816,-606.972Zm561.795,605.013c0,-5.255 0.24,-11.9 0.735,-19.937c0.488,-8.036 0.818,-15.609 0.99,-22.718c0.173,-7.108 -0.022,-13.444 -0.592,-19.008c-0.45,-6.182 2.392,-10.044 8.535,-11.591c6.765,-1.544 11.077,0.309 12.93,5.565c0.457,0.926 0.6,1.853 0.435,2.782c0.855,7.417 0.907,18.543 0.142,33.378c-0.765,14.838 -1.185,24.264 -1.275,28.282c0.165,4.327 -1.582,7.65 -5.235,9.968c-3.652,2.319 -7.38,2.859 -11.182,1.623c-3.803,-1.236 -5.625,-4.017 -5.483,-8.344Zm1888.77,-205.833c3.315,-0.518 6.353,0.18 9.128,2.092c2.797,1.913 4.44,4.523 4.965,7.83c0.54,3.3 -0.075,6.345 -1.83,9.128c-1.035,1.395 -2.348,2.955 -3.9,4.695c-1.575,1.747 -3.923,4.177 -7.058,7.312c-3.135,3.128 -6.945,5.828 -11.475,8.085c-4.53,2.265 -9.045,3.57 -13.575,3.915c-9.037,1.043 -17.377,-1.912 -25.05,-8.872c-2.767,-2.438 -4.957,-6.435 -6.51,-12c-1.582,-5.573 -3.405,-14.79 -5.482,-27.66c-4.53,-26.445 -8.543,-41.925 -12.015,-46.455c-3.135,2.782 -12.173,14.617 -27.143,35.49c-3.81,5.572 -6.697,9.742 -8.617,12.525c-1.89,2.79 -4.688,6.615 -8.34,11.482c-3.653,4.875 -6.518,8.438 -8.61,10.703c-2.078,2.257 -4.785,5.13 -8.093,8.61c-3.292,3.48 -6.247,5.917 -8.865,7.305c-2.617,1.395 -5.385,2.61 -8.362,3.652c-2.955,1.043 -5.82,1.395 -8.61,1.043c-2.775,-0.345 -5.73,-1.215 -8.865,-2.603c-6.27,-3.48 -10.013,-11.655 -11.228,-24.532c-1.215,-12.87 -0.607,-32.183 1.83,-57.93c1.733,-29.58 2.273,-49.058 1.575,-58.455c-0.742,-9.93 -0.54,-17.768 1.125,-23.46c1.538,-5.19 5.01,-6.765 9.878,-6.765c4.867,-0 7.867,2.34 10.305,6.015c3.675,5.535 2.52,13.597 3.225,26.82c0.697,13.222 -0,32.355 -2.1,57.405c-2.07,31.665 -2.438,51.15 -1.035,58.455c5.205,-3.48 16.86,-18.263 34.965,-44.363c12.18,-17.047 21.577,-29.047 28.185,-36.007c6.607,-6.96 13.207,-10.44 19.815,-10.44c4.53,-0 8.617,1.395 12.27,4.177c3.652,2.783 6.532,6 8.61,9.653c2.092,3.652 4.192,9.045 6.27,16.185c2.092,7.125 3.562,12.952 4.44,17.475c0.877,4.53 2.002,11.31 3.382,20.355c2.43,14.962 4.35,23.835 5.745,26.617c1.74,1.395 3.315,1.92 4.695,1.568c5.925,-0.698 12.195,-5.393 18.803,-14.093c1.732,-2.782 4.26,-4.432 7.552,-4.957Zm-646.792,36.622c7.305,-7.657 16.095,-20.355 26.355,-38.1c10.252,-17.745 19.387,-36.007 27.39,-54.795c-11.813,14.61 -22.433,29.573 -31.838,44.88c-12.172,19.83 -19.477,35.835 -21.907,48.015Zm232.942,-82.912c3.833,-29.573 3.495,-48.713 -1.042,-57.413c-3.135,-1.042 -6.083,-2.437 -8.88,-4.17c-9.743,1.733 -19.478,9.563 -29.22,23.483c-9.743,13.92 -14.948,26.445 -15.645,37.575c-0.36,1.042 -0.518,2.782 -0.518,5.22c-2.1,10.785 -2.37,21.66 -0.795,32.617c1.56,10.965 5.82,17.655 12.788,20.093c3.832,1.395 8.002,0.87 12.532,-1.56c4.875,-3.48 9.81,-9.225 14.858,-17.228c5.055,-8.002 8.887,-15.48 11.497,-22.44c2.595,-6.96 4.088,-12.352 4.425,-16.177Zm-879.585,-39.218c0.698,-1.732 1.568,-3.825 2.61,-6.255c-1.395,-1.74 -2.437,-3.66 -3.127,-5.745c-1.395,-8.002 -4.178,-13.222 -8.355,-15.652c-0.698,-0.698 -1.568,-1.05 -2.61,-1.05c-1.043,-0 -2.258,0.18 -3.653,0.525c-12.87,3.825 -27.922,17.917 -45.142,42.277c-17.228,24.353 -25.665,44.355 -25.313,60.015c0,6.615 2.783,10.785 8.348,12.525c10.095,2.783 22.185,-4.44 36.27,-21.66c14.092,-17.22 27.75,-38.88 40.972,-64.98Zm468.15,0c0.69,-1.732 1.56,-3.825 2.61,-6.255c-1.395,-1.74 -2.437,-3.66 -3.135,-5.745c-1.387,-8.002 -4.177,-13.222 -8.347,-15.652c-0.698,-0.698 -1.568,-1.05 -2.61,-1.05c-1.043,-0 -2.265,0.18 -3.653,0.525c-12.877,3.825 -27.922,17.917 -45.15,42.277c-17.22,24.353 -25.657,44.355 -25.312,60.015c-0,6.615 2.79,10.785 8.355,12.525c10.087,2.783 22.177,-4.44 36.27,-21.66c14.092,-17.22 27.75,-38.88 40.972,-64.98Zm-1190.53,-43.327c0.694,-1.74 1.564,-3.825 2.608,-6.263c-1.391,-1.74 -2.434,-3.652 -3.131,-5.745c-1.391,-8.002 -4.176,-13.215 -8.351,-15.652c-0.695,-0.698 -1.565,-1.043 -2.609,-1.043c-1.044,0 -2.261,0.173 -3.652,0.518c-12.874,3.832 -27.923,17.917 -45.146,42.277c-17.223,24.353 -25.659,44.363 -25.312,60.015c-0,6.615 2.785,10.793 8.351,12.525c10.089,2.79 22.181,-4.432 36.272,-21.66c14.091,-17.22 27.747,-38.88 40.97,-64.972Zm530.849,-268.245c-17.047,21.922 -35.055,57.412 -54.022,106.47c-18.96,49.057 -36.443,102.637 -52.448,160.747c27.135,-44.19 51.143,-85.77 72.023,-124.74c20.872,-38.962 36.795,-72.975 47.752,-102.03c10.965,-29.047 14.355,-47.58 10.178,-55.582c-0.698,-0.698 -2.085,-1.215 -4.178,-1.568c-4.522,0 -10.957,5.573 -19.305,16.703Zm568.35,-8.873c-20.88,17.4 -43.837,53.235 -68.887,107.513c-25.058,54.277 -43.673,108.21 -55.845,161.79c44.535,-65.063 79.5,-124.388 104.902,-177.968c25.395,-53.58 36.533,-86.46 33.398,-98.64c-3.48,0 -8.003,2.438 -13.568,7.305Zm-945.24,195.698c5.565,-10.785 11.31,-22.268 17.228,-34.44l-8.355,-0c-3.128,11.475 -6.09,22.957 -8.873,34.44Zm86.115,-223.898c-18.787,12.533 -42.27,67.5 -70.455,164.925c2.783,0.345 7.133,0.698 13.05,1.043c21.218,-43.838 37.395,-80.978 48.533,-111.428c11.137,-30.442 14.79,-49.147 10.957,-56.1c0,0.345 -0.69,0.87 -2.085,1.56Z" clip-rule="nonzero"/></clipPath><g clip-path="url(#_clip1)"><g id="Strokes"><g><path id="fRCurve" d="M48.753,296.832c12.79,-29.957 30.476,-58.189 53.028,-84.272c22.716,-26.281 47.374,-48.834 73.987,-67.645c26.792,-18.943 56.057,-35.747 87.794,-50.422c14.633,-6.807 30.603,-13.087 47.932,-18.858c17.439,-5.816 36.159,-11.024 56.157,-15.644c19.876,-4.585 39.922,-7.815 60.139,-9.683c20.21,-1.867 41.75,-0.88 61.62,-0.031c19.341,0.827 36.028,4.704 53.055,10.163c16.87,5.402 31.357,12.758 44.951,22.092c13.157,9.035 22.632,19.03 31.509,34.407c9.061,15.695 17.078,33.919 19.665,54.629c3.299,26.373 -0.355,52.664 -7.939,78.872c-7.651,26.446 -21.708,51.485 -37.675,73.6c-16.286,22.568 -36.295,43.267 -58.515,63.618c-22.275,20.409 -41.835,34.765 -67.679,50.576c-26.013,15.914 -52.28,33.448 -78.805,45.083c-26.406,11.582 -52.043,20.623 -76.917,27.094l-14.9,3.112c59.646,119.232 186.469,203.444 339.849,254.451" style="fill:none;stroke:#fff;stroke-width:32px;"/><path id="fRStroke" d="M308.782,147.456c-22.962,134.999 -103.006,609.868 -103.006,609.868c22.965,-134.996 103.006,-609.868 103.006,-609.868Z" style="fill:none;stroke:#fff;stroke-width:27px;"/><path id="fa1" d="M757.965,383.57c-1.191,3.357 -3.925,8.385 -5.843,11.563c-12.333,20.435 -12.984,-5.679 -14.17,-7.576c-2.445,-3.908 -5.16,-6.932 -8.345,-8.897c-5.193,-3.144 -10.967,-3.515 -17.286,-1.487c-0.129,0.042 -0.259,0.081 -0.39,0.118c-9.699,2.73 -20.351,10.818 -32.473,23.543c-13.219,13.884 -24.529,29.754 -33.947,47.598c-8.802,16.677 -13.362,30.944 -13.054,42.987c0.001,0.028 0.001,0.055 0.002,0.083c0.243,13.34 7.056,21.579 18.919,25.011c8.66,2.274 16.278,0.955 25.225,-4.225c9.09,-5.262 17.386,-16.32 27.894,-27.748c23.321,-25.365 46.455,-95.394 50.915,-93.857c4.46,1.538 -27.161,55.118 -30.577,102.353c-0.84,11.607 6.129,21.572 13.557,26.029c0,-0 -2.843,-1.524 -2.842,-1.524c5.202,3.122 10.928,4.657 17.169,4.657c6.921,0 14.253,-1.828 22.039,-5.291c0.003,-0.001 0.006,-0.002 0.009,-0.004c8.548,-3.793 16.149,-8.212 22.793,-13.274c6.927,-5.277 13.857,-11.391 20.784,-18.317c3.117,-3.117 25.229,-28.234 27.603,-30.711" style="fill:none;stroke:#fff;stroke-width:27px;"/><path id="ftBody" d="M853.374,421.596c24.597,-43.996 45.843,-82.711 63.861,-119.427c2.024,-4.124 14.008,-28.94 15.629,-32.318c12.393,-25.825 20.309,-43.618 28.577,-64.613c8.152,-20.729 13.862,-37.036 17.093,-48.932c3.148,-11.614 6.757,-21.006 7.924,-29.801c1.043,-7.922 0.134,-14.099 -0.169,-16.934c-0.001,-0.009 -0.002,-0.018 -0.003,-0.028c-0.13,-1.254 -0.138,-2.272 -0.533,-2.929c-0.266,-0.442 -0.502,-0.903 -0.705,-1.378c-1.552,-3.629 -4.037,-5.951 -7.666,-6.729c-0.001,-0 -0.001,-0 -0.002,-0c-4.498,-0.966 -8.948,0.145 -13.465,2.9c-8.607,5.878 -18.21,17.861 -27.602,36.374c-15.718,30.985 -30.582,82.239 -48.277,145.196c-1.422,5.061 -52.173,139.219 -37.347,257.055c2.34,18.602 8.245,31.353 15.919,38.19c5.149,4.382 11.016,6.609 17.63,6.609c-0,-0 3.77,0.009 3.784,0.009c5.638,-0.908 11.196,-3.094 16.707,-6.455c6.27,-3.824 11.935,-8.413 16.979,-13.768c0.001,-0.001 0.003,-0.003 0.004,-0.004c3.493,-3.704 6.421,-6.905 8.788,-9.614c2.41,-2.757 9.56,-12.012 12.744,-17.58" style="fill:none;stroke:#fff;stroke-width:27px;"/><path id="ftStroke" d="M699.349,305.234c6.501,-6.005 19.667,-12.039 37.633,-14.946c31.2,-5.05 77.488,-5.955 138.861,-2.875c5.25,0.263 60.321,3.938 64.061,4.17c11.041,0.684 22.595,1.547 34.669,2.58c15.438,1.438 30.734,2.865 43.659,2.501c13.048,-0.359 24.828,-1.368 35.337,-3.001c10.68,-1.651 19.969,-3.696 27.881,-6.085c0.002,-0.001 0.005,-0.001 0.007,-0.002c8.073,-2.443 13.793,-5.885 19.424,-8.506c0.004,-0.002 0.008,-0.004 0.012,-0.006c6.097,-2.847 10.746,-5.543 13.996,-7.979c4.565,-3.421 9.446,-7.422 10.808,-10.364" style="fill:none;stroke:#fff;stroke-width:27px;"/><path id="fc" d="M1022.25,445.887c-0.781,-28.985 -6.975,-23.367 -7.04,-23.39c-3.053,-1.078 -6.205,-0.453 -9.528,1.297c-5.326,2.806 -10.721,8.038 -16.476,15.38c-0.069,0.087 -0.139,0.174 -0.21,0.259c-3.246,3.897 -6.729,8.689 -10.458,14.37c-0.002,0.002 -0.004,0.005 -0.006,0.008c-3.926,5.97 -9.35,14.929 -15.503,26.63c-12.943,24.615 -15.185,40.16 -16.283,45.836c-4.34,22.432 7.564,36.564 10.965,39.212c5.73,4.428 12.303,6.455 20.379,6.455c10.117,0 21.429,-2.442 34.764,-8.726c14.457,-6.813 27.508,-14.448 39.143,-22.923c11.921,-8.684 24.089,-18.478 36.517,-29.379c0.003,-0.002 0.005,-0.005 0.008,-0.007c4.351,-3.809 32.959,-30.74 40.72,-41.431" style="fill:none;stroke:#fff;stroke-width:27px;"/><path id="fh" d="M1123.64,490.192c11.115,-17.363 26.093,-38.913 38.42,-58.701c12.298,-19.743 28.409,-47.02 48.323,-81.837c0.001,-0.001 0.001,-0.002 0.002,-0.003c19.877,-34.733 36.724,-66.186 50.552,-94.355c13.616,-27.748 24.271,-54.478 31.934,-80.193c0,0 0,-0 0.001,-0c3.621,-12.148 5.749,-22.496 6.272,-31.065c0.413,-6.773 -0.057,-12.18 -2.092,-16.124c-2.888,-5.566 -8.034,-8.007 -15.048,-8.007c-10.174,0 -19.796,7.746 -30.243,21.215c-0.02,0.026 -0.04,0.052 -0.06,0.077c-10.036,12.711 -20.671,31.225 -32.048,55.478c-11.702,24.955 -60.493,160.6 -71.897,201.03c-0.01,0.035 -0.02,0.069 -0.03,0.103c-7.077,24.211 -11.622,48.694 -17.194,71.408l-0.314,1.571c-0.731,2.977 -8.642,37.064 -9.701,41.845c-12.862,58.075 -19.735,93.38 -15.535,108.668c0.014,0.052 0.028,0.104 0.041,0.156c0.999,3.85 2.55,6.56 5.654,7.225c0,0 1.19,0 1.19,0c1.83,0 3.575,-1.118 5.544,-2.65c3.57,-2.777 7.187,-7.011 11.008,-12.565c0.001,-0.001 0.002,-0.002 0.002,-0.003c9.083,-13.188 23.689,-39.333 43.899,-78.379c0.001,-0.003 0.002,-0.005 0.004,-0.007c24.214,-46.703 42.333,-78.42 54.268,-95.197c6.37,-8.955 10.825,-15.807 14.385,-17.917c4.291,-2.543 9.185,-3.392 12.842,0c2.356,2.185 6.552,9.564 8.705,16.591c3.248,10.603 6.241,29.713 8.773,57.36c0.007,0.073 0.013,0.146 0.018,0.22c1.025,14.268 2.033,24.965 3.051,32.095c0.971,6.806 2.689,14.257 5.112,22.362c1.946,6.465 4.206,11.391 7.315,14.545c7.873,7.566 16.725,11.13 26.681,10.345c0.027,-0.002 0.054,-0.004 0.081,-0.006c7.8,-0.559 15.167,-3.254 22.127,-7.992c0.002,-0.001 0.005,-0.003 0.008,-0.005c5.005,-3.4 15.917,-16.807 19.482,-20.465" style="fill:none;stroke:#fff;stroke-width:27px;"/><path id="fa2" d="M1481.65,427.46c-1.191,3.356 -4.885,7.603 -6.803,10.781c-12.333,20.435 -12.984,-5.679 -14.17,-7.575c-2.445,-3.908 -5.16,-6.932 -8.345,-8.898c-5.194,-3.144 -10.967,-3.515 -17.286,-1.486c-0.13,0.041 -0.26,0.08 -0.39,0.117c-9.7,2.731 -20.351,10.818 -32.474,23.544c-13.218,13.883 -24.528,29.753 -33.946,47.597c-8.802,16.678 -13.108,31.961 -11.275,42.988c0.005,0.027 0.002,0.055 0.002,0.082c0.244,13.341 7.056,21.58 18.92,25.011c8.659,2.274 14.497,0.955 23.445,-4.225c9.09,-5.262 17.386,-16.319 27.893,-27.748c23.321,-25.364 46.456,-95.394 50.916,-93.856c4.46,1.537 -27.161,55.117 -30.577,102.352c-0.84,11.607 6.128,21.573 13.556,26.029c0.001,0 -2.842,-1.524 -2.841,-1.523c5.201,3.122 10.928,4.656 17.169,4.656c6.921,0 14.253,-1.827 22.038,-5.29c0.003,-0.002 0.007,-0.003 0.01,-0.004c8.548,-3.793 16.149,-8.213 22.793,-13.275c6.927,-5.277 13.857,-11.39 20.784,-18.317c3.117,-3.117 25.229,-28.234 27.603,-30.711" style="fill:none;stroke:#fff;stroke-width:27px;"/><path id="fd" d="M1634.18,434.722c-0.151,-0.151 -24.706,5.18 -40.528,25.278c-0.001,0 -0.001,0 -0.001,0.001c-20.567,17.721 -44.207,63.848 -41.691,83.391c1.044,8.104 4.463,14.902 10.724,20.365c0.283,0.247 0.554,0.508 0.815,0.782c9.914,6.442 21.21,4.109 34.122,-4.747c0.001,-0 0.001,-0.001 0.002,-0.001c17.585,-12.056 38.807,-34.281 63.922,-66.435l25.271,-34.558c1.753,-2.456 4.551,-6.304 8.404,-11.552c46.938,-65.58 87.068,-131.165 120.372,-196.746c0,0 0,-0 0.001,-0.001c19.62,-38.628 32.341,-69.356 37.993,-92.25c3.213,-13.012 4.265,-23.015 2.186,-30.086c-0.993,-3.285 -2.849,-5.697 -5.768,-7.085c-8.358,-3.008 -17.288,1.049 -27.594,9.631c-25.556,21.539 -52.558,66.526 -81.817,134.463c-29.772,69.126 -48.312,133.28 -55.497,192.477c-0.241,1.986 -2.524,37.927 -2.524,42.946c-0,12.614 1.107,23.927 3.365,33.948c0.009,0.042 0.019,0.085 0.028,0.128c5.499,25.743 17.347,41.948 37.016,47.483c5.574,1.459 11.146,2.194 16.726,2.194c8.255,-0 16.502,-1.731 24.757,-5.124c0.002,-0.001 0.004,-0.002 0.007,-0.003c8.737,-3.585 16.089,-7.529 22.014,-11.894c0.002,-0.001 0.003,-0.002 0.005,-0.004c6.08,-4.473 11.987,-9.761 17.742,-15.84c0.003,-0.003 0.006,-0.006 0.009,-0.009c1.358,-1.431 2.613,-2.774 3.772,-4.022c2.555,-2.749 14.74,-19.628 15.438,-23.478" style="fill:none;stroke:#fff;stroke-width:27px;"/><path id="fa3" d="M1950.07,428.861c-1.192,3.357 -5.017,6.202 -6.935,9.38c-12.332,20.435 -12.984,-5.679 -14.17,-7.575c-2.444,-3.908 -5.16,-6.932 -8.344,-8.898c-5.194,-3.144 -10.968,-3.515 -17.287,-1.486c-0.129,0.041 -0.259,0.08 -0.39,0.117c-9.699,2.731 -20.351,10.818 -32.473,23.544c-13.219,13.883 -24.529,29.753 -33.947,47.597c-8.802,16.678 -11.582,32.216 -11.274,44.259c0.001,0.028 0.001,0.055 0.002,0.083c0.243,13.34 7.056,21.579 18.919,25.01c8.66,2.274 14.498,-0.316 23.445,-5.496c9.09,-5.262 17.386,-16.319 27.894,-27.748c23.321,-25.364 46.455,-95.394 50.915,-93.856c4.461,1.537 -27.161,55.117 -30.577,102.352c-0.84,11.607 6.129,21.573 13.557,26.029c0,0 -2.842,-1.524 -2.842,-1.523c5.202,3.122 10.928,4.656 17.169,4.656c6.921,0 14.253,-1.827 22.039,-5.29c0.003,-0.002 0.006,-0.003 0.009,-0.004c8.548,-3.793 16.149,-8.213 22.794,-13.275c6.926,-5.277 13.856,-11.39 20.783,-18.317c3.117,-3.117 25.229,-28.234 27.603,-30.711" style="fill:none;stroke:#fff;stroke-width:27px;"/><path id="fp" d="M2052.8,375.914c-0,-0 -24.517,110.49 -24.517,110.49c-0.002,0.008 -0.004,0.016 -0.006,0.024c-1.919,8.273 -3.86,16.888 -5.838,25.855c-0.422,1.913 -8.052,37.464 -9.024,42.136c-8.774,42.185 -20.173,89.992 -30.122,144.438c-15.434,84.455 -22.611,132.89 -20.579,145.439c0.019,0.118 0.037,0.236 0.052,0.354c0.031,0.012 0.063,0.024 0.105,0.04c0.218,0.07 0.467,0.061 0.734,0.061c0.165,-0 0.318,-0.028 0.438,-0.138c0.005,-0.005 0.01,-0.01 0.015,-0.014c0.097,-0.09 0.192,-0.176 0.273,-0.267c0.039,-0.044 0.083,-0.081 0.096,-0.138c4.215,-37.129 16.261,-100.039 36.205,-188.712c20.225,-89.963 35.424,-143.371 45.001,-160.406c0.01,-0.018 0.02,-0.035 0.03,-0.053c10.435,-18.329 25.124,-38.206 44.173,-59.587c20.421,-22.92 39.476,-35.845 56.394,-39.724c11.919,-2.968 22.1,-0.939 30.557,5.404c2.393,1.642 4.552,4.128 5.981,7.837c1.542,4.001 4.554,10.732 3.578,20.251c-0.011,0.099 -2.003,12.299 -3.61,17.991c-3.229,11.429 -9.41,31.605 -18.044,50.88c-8.863,19.776 -15.765,34.107 -20.69,42.973c-4.899,8.777 -8.524,15.026 -10.89,18.746c-0.032,0.05 -0.064,0.101 -0.095,0.152c-11.262,18.346 -20.825,30.962 -29.026,37.562c-2.195,1.762 -4.183,3.161 -6.06,3.85c-1.7,0.624 -3.294,0.635 -4.853,-0.299c-0.162,-0.098 -0.326,-0.191 -0.493,-0.28c-3.176,-1.693 -4.885,-4.373 -5.548,-7.918c-0.696,-3.721 -0.266,-8.356 0.841,-13.797c3.62,-17.396 14.545,-37.76 31.45,-63.188c-0,-0 0,-0.001 0,-0.001c10.303,-15.501 39.77,-56.289 75.053,-82.819c9.792,-7.363 22.96,-9.43 36.278,-11.413c22.059,-3.284 63.373,5.144 90.878,3.011" style="fill:none;stroke:#fff;stroke-width:27px;"/><path id="fo" d="M2324.59,426.529c-14.609,0.167 -26.092,13.546 -29.082,16.694c-7.178,7.556 -16.039,16.09 -20.478,25.103c-0.002,0.004 -0.004,0.007 -0.005,0.01c-5.524,11.187 -8.874,21.199 -9.827,30.102c-0.068,1.098 -0.247,2.843 -0.576,5.23c-1.898,15.984 -1.762,29.386 0.647,40.203c2.975,13.354 9.554,22.229 20.534,25.989c0.075,0.026 0.149,0.052 0.223,0.08c2.58,0.944 5.298,1.406 8.121,1.406c5.205,-0 10.153,-1.551 14.861,-4.528c0.061,-0.038 0.122,-0.075 0.183,-0.112c9.858,-5.974 16.947,-16.413 23.674,-30.163c7.137,-14.602 12.523,-26.053 13.784,-35.264c2.628,-20.609 2.759,-36.577 1.598,-48.088c-1.341,-13.292 -17.353,-28.497 -22.904,-28.723c-0,0 33.02,18.738 64.966,17.54c31.727,-1.19 45.399,-20.043 45.399,-20.043" style="fill:none;stroke:#fff;stroke-width:27px;"/><path id="fr" d="M2450.09,358.516c-11.843,52.517 -33.183,138.922 -44.93,211.496c-1.382,8.535 -1.317,15.414 -1.117,20.416c0.129,3.208 0.529,5.648 1.34,7.309l0.042,0.089c0.384,-0.065 0.772,-0.11 1.163,-0.134c0.028,-0.002 0.059,-0.004 0.09,-0.008c0.046,-0.125 0.088,-0.251 0.115,-0.359c0.031,-0.127 0.065,-0.253 0.102,-0.378c8.887,-30.897 19.46,-59.212 31.701,-84.964c0.002,-0.003 0.003,-0.006 0.004,-0.009c12.625,-26.502 27.486,-48.216 44.469,-65.222c0.003,-0.003 0.006,-0.006 0.009,-0.009c19.181,-19.163 39.035,-27.733 58.013,-25.322" style="fill:none;stroke:#fff;stroke-width:27px;"/><path id="fn" d="M2581.97,423.856c-0.796,4.429 0.03,10.17 0.547,17.079c-0,0.002 -0,0.004 0,0.006c0.716,9.643 0.215,29.631 -1.563,59.984c-0.008,0.138 -0.019,0.275 -0.032,0.413c-2.346,24.783 -2.999,43.37 -1.829,55.758c-0,-0 -0,-0 -0,0c0.463,4.912 1.295,8.953 2.722,12.072c0.637,1.393 1.3,2.56 2.298,3.256c1.764,0.738 3.426,1.243 5.007,1.44c0.008,0.001 0.016,0.002 0.023,0.003c1.081,0.136 2.18,-0.073 3.325,-0.477c0.008,-0.003 0.017,-0.006 0.025,-0.009c2.403,-0.841 4.637,-1.819 6.749,-2.944c0.007,-0.004 0.015,-0.009 0.023,-0.013c1.766,-0.936 3.666,-2.692 5.887,-5.04c0.006,-0.006 0.012,-0.012 0.018,-0.019c3.255,-3.425 5.921,-6.252 7.966,-8.474c0.005,-0.005 0.01,-0.011 0.015,-0.016c1.912,-2.07 4.514,-5.337 7.851,-9.792c0.001,-0.002 0.003,-0.004 0.005,-0.006c3.509,-4.677 6.2,-8.348 8.016,-11.029c0.019,-0.027 0.037,-0.054 0.056,-0.082c1.914,-2.773 4.792,-6.929 8.589,-12.484c0.049,-0.071 0.099,-0.142 0.149,-0.212c15.827,-22.067 25.545,-34.454 28.86,-37.395c2.396,-2.127 5.57,-3.162 8.759,-2.857c3.19,0.305 6.11,1.924 8.059,4.467c1.542,2.012 3.346,5.392 5.031,10.322c2.778,8.125 5.884,21.85 9.2,41.205c0.006,0.036 0.012,0.073 0.018,0.109c1.978,12.256 3.684,21.04 5.191,26.347c0.005,0.017 0.01,0.034 0.014,0.051c0.809,2.9 1.58,5.171 3.022,6.441c0.043,0.038 0.085,0.075 0.126,0.113c4.923,4.465 10.177,6.625 15.975,5.956c0.148,-0.017 0.297,-0.031 0.446,-0.043c3.105,-0.236 6.186,-1.177 9.291,-2.73c0.004,-0.002 0.009,-0.004 0.013,-0.006c3.335,-1.662 6.161,-3.621 8.469,-5.924c2.935,-2.935 5.139,-5.209 6.633,-6.865c1.092,-1.225 2.046,-2.337 2.834,-3.357" style="fill:none;stroke:#fff;stroke-width:36px;"/><path id="etStroke" d="M872.264,689.253l-3.104,61.456" style="fill:none;stroke:#fff;stroke-width:32.12px;stroke-miterlimit:1.5;"/><path id="etCurve" d="M913.855,805.337c0,-0 -43.596,-30.407 -75.733,-27.935c-40.35,3.104 -72.611,60.723 -35.384,89.39c21.582,16.62 52.765,16.761 52.765,16.761c0,0 -157.054,69.526 -105.53,122.912c51.524,53.386 130.982,-8.691 130.982,-8.691c-0,0 -24.831,38.488 -30.418,55.869c-5.587,17.382 -13.036,50.903 -13.036,50.903" style="fill:none;stroke:#fff;stroke-width:32.12px;stroke-miterlimit:1.5;"/><path id="tS" d="M1458.88,810.091c0.015,-0.035 0.029,-0.068 0.042,-0.099c1.033,-2.065 2.544,-4.998 4.537,-8.822c2.116,-4.061 3.882,-7.506 5.298,-10.33c0.005,-0.009 0.009,-0.017 0.013,-0.026c1.406,-2.821 3.168,-6.433 5.288,-10.838c0.002,-0.005 0.004,-0.01 0.007,-0.014c2.173,-4.534 3.985,-8.524 5.433,-11.97c1.4,-3.318 2.973,-7.071 4.719,-11.261c1.991,-4.779 3.472,-9.263 4.467,-13.445c0.916,-3.841 1.736,-7.776 2.47,-11.803c0.854,-4.684 1.159,-9.263 0.948,-13.738c-0,0 -0,-0 -0,-0c-0.199,-4.22 -0.704,-8.341 -1.51,-12.359c-0.018,-0.093 -0.038,-0.186 -0.059,-0.279c-6.236,-27.432 -18.438,-42.552 -71.213,-43.619c-46.043,-0.931 -80.397,11.663 -132.48,37.706c-45.268,22.634 -87.624,50.042 -127.052,82.227c-39.816,32.492 -71.653,68.046 -95.575,106.609c-12.15,19.547 -19.004,36.206 -20.998,49.781c-2.45,16.678 1.878,29.521 11.908,38.851c0.021,0.019 0.042,0.038 0.063,0.057c5.259,4.818 11.891,8.621 20.002,11.249c7.447,2.416 16.394,3.611 26.862,3.41c9.254,-0.177 16.643,-0.448 22.161,-0.803c5.635,-0.363 14,-1.437 25.091,-3.255c9.562,-1.566 14.952,-2.462 16.209,-2.462c0.462,0 0.923,-0.029 1.381,-0.086c11.254,-1.409 25.912,-2.683 47.025,-6.378c20.681,-3.619 37.59,-5.871 52.245,-7.768c14.638,-1.893 31.851,-2.852 50.114,-4.402c-0,-0 0,-0 0.001,-0c17.639,-1.499 34.526,-1.259 50.666,0.738c16.045,1.985 30.425,4.685 44.646,9.644c19.516,6.928 37.992,16.947 50.897,33.596c2.007,2.739 11.257,17.378 11.351,17.659c0.192,0.577 0.429,1.131 0.706,1.658c-0.024,-0.041 -0.047,-0.084 -0.07,-0.128c12.549,24.764 17.043,50.976 13.507,78.636c0,0.001 -0,0.003 -0,0.004c-6.71,52.662 -38.311,107.269 -93.989,164.291c-55.081,56.094 -112.295,95.288 -171.795,117.389c-26.367,9.704 -48.157,13.934 -65.467,12.154c-14.805,-1.522 -25.867,-7.731 -32.925,-19.075c-12.194,-19.669 -10.865,-42.907 -0.268,-70.124c11.687,-30.016 34.562,-64.292 71.389,-102.632c0.001,-0 0.002,-0.001 0.002,-0.002c66.041,-68.792 152.417,-130.478 259.052,-185.17c3.132,-1.606 21.124,-10.575 22.674,-11.394c10.377,-5.486 48.453,-21.718 48.753,-21.804" style="fill:none;fill-rule:nonzero;stroke:#fff;stroke-width:28px;"/><path id="ti" d="M1536.82,989.316c6.312,-1.552 14.939,-3.813 20.028,-3.743c7.763,0.106 12.749,2.125 15.794,5.361c3.054,3.251 4.175,7.75 4.125,12.886c-0.108,10.344 -9.922,41.943 -11.082,46.804c-4.933,20.656 -7.509,36.661 -7.88,47.993c0,0.003 0,0.005 0,0.008c-0.473,14.793 2.245,24.116 5.588,28.411c0.982,1.261 2.213,2.308 3.617,3.073c6.954,3.794 15.265,4.842 25.001,2.356c10.882,-2.78 24.282,-10.518 39.83,-23.826c-0,-0 0,-0.001 0,-0.001c14.451,-12.371 48.697,-45.13 65.289,-70.801" style="fill:none;fill-rule:nonzero;stroke:#fff;stroke-width:26.89px;"/><path id="tiDot" d="M1574.15,933.027l19.212,-4.937" style="fill:none;stroke:#fff;stroke-width:30px;stroke-miterlimit:1.5;"/><path id="tr1" d="M1727.31,926.476c-11.843,52.518 -33.182,138.923 -44.929,211.497c-1.382,8.534 -1.317,15.414 -1.117,20.416c0.129,3.207 0.529,5.647 1.34,7.308l0.042,0.089c0.384,-0.065 0.772,-0.109 1.163,-0.134c0.028,-0.001 0.058,-0.004 0.09,-0.008c0.046,-0.124 0.088,-0.251 0.115,-0.358c0.031,-0.127 0.065,-0.253 0.101,-0.379c8.888,-30.897 19.461,-59.211 31.702,-84.964c0.001,-0.003 0.003,-0.006 0.004,-0.008c12.625,-26.503 27.486,-48.216 44.469,-65.223c0.003,-0.003 0.006,-0.006 0.009,-0.009c19.181,-19.163 39.034,-27.732 58.013,-25.322" style="fill:none;stroke:#fff;stroke-width:27px;"/><path id="ta" d="M1943.89,992.691c-1.191,3.357 -3.926,8.385 -5.844,11.563c-12.332,20.434 -12.984,-5.679 -14.17,-7.576c-2.444,-3.908 -5.16,-6.932 -8.344,-8.897c-5.194,-3.144 -10.967,-3.516 -17.287,-1.487c-0.129,0.042 -0.259,0.081 -0.39,0.118c-9.699,2.73 -20.351,10.818 -32.473,23.543c-13.219,13.884 -24.529,29.754 -33.946,47.598c-8.802,16.677 -13.363,30.944 -13.055,42.987c0.001,0.028 0.002,0.055 0.002,0.083c0.244,13.34 7.056,21.579 18.92,25.01c8.659,2.275 16.277,0.956 25.224,-4.224c9.09,-5.262 17.387,-16.32 27.894,-27.748c23.321,-25.365 46.456,-95.394 50.916,-93.857c4.46,1.537 -27.161,55.118 -30.578,102.353c-0.839,11.607 6.129,21.572 13.557,26.028c0.001,0.001 -2.842,-1.523 -2.842,-1.523c5.202,3.122 10.928,4.657 17.17,4.657c6.92,-0 14.253,-1.828 22.038,-5.291c0.003,-0.001 0.006,-0.002 0.009,-0.004c8.549,-3.793 16.15,-8.212 22.794,-13.274c6.927,-5.277 13.857,-11.391 20.784,-18.318c3.116,-3.116 25.228,-28.233 27.603,-30.711" style="fill:none;stroke:#fff;stroke-width:27px;"/><path id="tk" d="M2044.32,992.504c0.337,-1.379 0.935,-2.682 1.762,-3.836c18.339,-25.603 35.895,-51.378 52.69,-77.329c16.801,-26.004 35.269,-55.736 55.381,-89.196c19.794,-32.94 34.595,-61.857 44.33,-86.776c4.574,-11.736 7.503,-21.645 8.666,-29.764c0.855,-5.964 0.95,-10.632 -0.702,-13.939c-0.003,-0.006 -0.005,-0.011 -0.008,-0.016c-1.864,-3.746 -5.276,-5.319 -9.863,-5.319c-0.084,-0 -0.168,-0.001 -0.252,-0.003c-12.691,-0.288 -25.004,6.124 -37.39,18.234c-0,-0 -0.001,0 -0.001,0.001c-14.591,14.261 -29.024,37.163 -43.615,68.503c-15.114,32.465 -28.273,66.046 -39.425,100.743c-0.001,0.002 -0.001,0.004 -0.002,0.007c-11.248,34.924 -31.262,117.725 -31.571,118.69c-6.286,25.616 -16.503,51.045 -17.362,73.622c-0.067,1.749 -7.345,41.745 -7.81,44.329c-4.88,27.122 -9.964,46.551 -10.87,58.288c-0.009,0.125 -0.021,0.251 -0.035,0.375c-0.509,4.57 -0.791,7.844 -0.608,9.841c0.049,0.188 0.108,0.36 0.254,0.474c0.24,0.183 0.495,0.305 0.789,0.305l0.916,-0c0.062,-0.146 0.168,-0.41 0.217,-0.604c0.117,-0.462 0.199,-0.983 0.277,-1.545l-0,-1.35c-0,-0.27 0.009,-0.54 0.029,-0.81c1.096,-14.988 2.239,-32.008 5.936,-48.731c2.998,-13.568 7.631,-38.494 10.905,-60.572c2.734,-18.44 3.802,-34.736 8.974,-42.252c21.524,-31.286 75.926,-42.247 104.116,-52.501c4.443,-1.839 37.911,26.605 -1.322,30.908c0.019,-0.208 -24.726,6.316 -48.496,19.744c-15.896,8.98 -29.431,24.813 -36.758,33.32c-3.322,3.857 -18.005,23.061 -21.599,44.179c-0.628,3.689 -3.752,7.639 -1.706,10.772c6.853,10.491 12.658,18.613 21.946,24.462c9.408,5.932 21.176,10.129 33.051,11.361c25.256,2.996 53.573,-3.568 82.456,-19.058l-0.001,0c17.514,-5.508 46.858,-27.652 58.879,-40.407" style="fill:none;fill-rule:nonzero;stroke:#fff;stroke-width:27px;"/><path id="to" d="M2295.82,989.191c-14.609,0.167 -26.092,13.545 -29.082,16.693c-7.179,7.556 -14.756,16.09 -19.195,25.104c-0.002,0.003 -0.004,0.007 -0.006,0.01c-5.524,11.187 -9.194,19.164 -10.147,28.066c-0.068,1.099 -1.056,37.293 1.354,48.11c2.975,13.354 7.309,21.588 18.289,25.348c0.075,0.026 0.149,0.052 0.223,0.079c2.579,0.945 5.298,1.406 8.121,1.406c5.205,0 10.153,-1.55 14.861,-4.527c0.061,-0.038 0.121,-0.076 0.183,-0.113c9.858,-5.973 16.947,-16.412 23.674,-30.162c7.137,-14.603 12.522,-26.053 13.784,-35.265c2.628,-20.609 2.759,-36.576 1.598,-48.087c-1.342,-13.292 -17.353,-28.497 -22.905,-28.723c0,-0 33.021,18.737 64.967,17.539c31.726,-1.189 45.399,-20.042 45.399,-20.042" style="fill:none;stroke:#fff;stroke-width:27px;"/><path id="tr2" d="M2416.06,927.178c-11.843,52.517 -33.182,138.922 -44.929,211.496c-1.382,8.535 -1.317,15.414 -1.117,20.416c0.129,3.208 0.529,5.647 1.34,7.309l0.042,0.088c0.384,-0.064 0.772,-0.109 1.163,-0.133c0.028,-0.002 0.058,-0.005 0.09,-0.009c0.046,-0.124 0.088,-0.25 0.115,-0.358c0.031,-0.127 0.065,-0.253 0.101,-0.379c8.888,-30.897 19.461,-59.211 31.702,-84.964c0.001,-0.002 0.003,-0.005 0.004,-0.008c12.625,-26.502 24.661,-48.668 41.643,-65.674c0.003,-0.003 0.006,-0.006 0.01,-0.01c19.181,-19.163 41.294,-27.28 60.273,-24.869" style="fill:none;stroke:#fff;stroke-width:27px;"/><path id="tn" d="M2556.8,973.811c0,0 -35.004,145.346 -37.139,166.822c0.005,0.295 0.23,0.483 0.491,0.672c0.001,0.001 0.001,0.001 0.002,0.002c0.129,0.093 0.236,0.215 0.376,0.151c3.23,-1.483 6.974,-4.847 11.567,-9.696c5.784,-6.138 14.635,-16.542 26.556,-31.191c0.012,-0.015 0.025,-0.03 0.037,-0.045c24.193,-29.432 42.067,-49.129 53.514,-59.18c6.601,-5.796 11.882,-8.81 15.329,-9.817c5.098,-1.489 10.555,0.685 13.233,5.272c2.728,4.673 5.981,19.72 8.308,45.393c1.377,12.703 2.494,22.321 3.361,28.852c0.002,0.013 0.004,0.025 0.005,0.038c0.753,5.82 2.48,12.168 5.074,19.062c1.896,5.02 4.055,8.779 7.182,10.788c0.161,0.103 0.32,0.211 0.476,0.323c2.845,2.034 5.989,3.061 9.456,3.061c9.502,-0 18.665,-4.75 27.917,-13.405" style="fill:none;fill-rule:nonzero;stroke:#fff;stroke-width:30px;"/></g></g></g></svg>